<?xml version="1.0" encoding="UTF-8" standalone="no"?>
<!-- Created with Inkscape (http://www.inkscape.org/) -->

<svg
   xmlns:ns1="http://www.iki.fi/pav/software/textext/"
   xmlns:dc="http://purl.org/dc/elements/1.1/"
   xmlns:cc="http://creativecommons.org/ns#"
   xmlns:rdf="http://www.w3.org/1999/02/22-rdf-syntax-ns#"
   xmlns:svg="http://www.w3.org/2000/svg"
   xmlns="http://www.w3.org/2000/svg"
   xmlns:sodipodi="http://sodipodi.sourceforge.net/DTD/sodipodi-0.dtd"
   xmlns:inkscape="http://www.inkscape.org/namespaces/inkscape"
   width="109.54678mm"
   height="43.918026mm"
   viewBox="0 0 109.54678 43.918026"
   version="1.1"
   id="svg6223"
   inkscape:version="0.92.3 (2405546, 2018-03-11)"
   sodipodi:docname="conv_2d_no_stride.svg">
  <defs
     id="defs6217" />
  <sodipodi:namedview
     id="base"
     pagecolor="#ffffff"
     bordercolor="#666666"
     borderopacity="1.0"
     inkscape:pageopacity="0.0"
     inkscape:pageshadow="2"
     inkscape:zoom="0.98994949"
     inkscape:cx="171.32384"
     inkscape:cy="32.18278"
     inkscape:document-units="mm"
     inkscape:current-layer="layer1"
     showgrid="false"
     fit-margin-top="0"
     fit-margin-left="0"
     fit-margin-right="0"
     fit-margin-bottom="0"
     inkscape:window-width="1323"
     inkscape:window-height="713"
     inkscape:window-x="43"
     inkscape:window-y="27"
     inkscape:window-maximized="1" />
  <metadata
     id="metadata6220">
    <rdf:RDF>
      <cc:Work
         rdf:about="">
        <dc:format>image/svg+xml</dc:format>
        <dc:type
           rdf:resource="http://purl.org/dc/dcmitype/StillImage" />
        <dc:title></dc:title>
      </cc:Work>
    </rdf:RDF>
  </metadata>
  <g
     inkscape:label="Capa 1"
     inkscape:groupmode="layer"
     id="layer1"
     transform="translate(122.05315,-49.011224)">
    <g
       transform="matrix(0.35277777,0,0,0.35277777,-128.31032,99.283386)"
       id="g5813">
      <g
         id="g5686">
        <path
           id="path112-4"
           d="m 84.012464,-116.19582 h 22.499996 v 22.50001 H 84.012464 Z m 0,0"
           style="fill:#b0d9ff;fill-opacity:1;fill-rule:nonzero;stroke:#000000;stroke-width:1.25;stroke-linecap:round;stroke-linejoin:round;stroke-miterlimit:10;stroke-opacity:1"
           inkscape:connector-curvature="0" />
        <path
           id="path114-7"
           d="m 96.336674,-101.37941 h -0.99609 v -6.3086 c -0.23437,0.23437 -0.54687,0.46875 -0.9375,0.70312 -0.39062,0.22266 -0.73828,0.38673 -1.03516,0.48829 v -0.95704 c 0.54688,-0.24609 1.02344,-0.55077 1.44532,-0.91796 0.41406,-0.375 0.70703,-0.74219 0.8789,-1.09375 h 0.64453 z m 0,0"
           style="fill:#000000;fill-opacity:1;fill-rule:nonzero;stroke:none;stroke-width:0.99999994"
           inkscape:connector-curvature="0" />
        <path
           id="path116-6"
           d="m 61.512464,-116.19582 h 22.5 v 22.50001 h -22.5 z m 0,0"
           style="fill:#b0d9ff;fill-opacity:1;fill-rule:nonzero;stroke:#000000;stroke-width:1.25;stroke-linecap:round;stroke-linejoin:round;stroke-miterlimit:10;stroke-opacity:1"
           inkscape:connector-curvature="0" />
        <path
           id="path118-5"
           d="m 70.106214,-105.34426 c 0,-0.94922 0.0977,-1.71875 0.29297,-2.30468 0.19531,-0.58594 0.47656,-1.03516 0.85937,-1.34766 0.39063,-0.3125 0.87891,-0.46875 1.46484,-0.46875 0.4375,0 0.82422,0.0937 1.15235,0.27343 0.32031,0.17188 0.58984,0.41798 0.80078,0.74219 0.20312,0.32813 0.37109,0.72266 0.48828,1.19141 0.125,0.46875 0.19531,1.10938 0.19531,1.91406 0,0.9375 -0.0977,1.69922 -0.29297,2.28516 -0.19531,0.57422 -0.48828,1.02344 -0.8789,1.34765 -0.38281,0.31251 -0.8711,0.46875 -1.46485,0.46875 -0.77343,0 -1.3789,-0.27734 -1.8164,-0.83984 -0.53906,-0.66406 -0.80078,-1.75 -0.80078,-3.26172 z m 1.01562,0 c 0,1.31641 0.14453,2.19532 0.44922,2.63672 0.3125,0.42969 0.69141,0.64453 1.15234,0.64453 0.45313,0 0.83985,-0.21484 1.15235,-0.64453 0.3125,-0.4414 0.46875,-1.32031 0.46875,-2.63672 0,-1.32812 -0.15625,-2.20703 -0.46875,-2.63672 -0.3125,-0.4414 -0.69922,-0.66406 -1.15235,-0.66406 -0.46093,0 -0.82031,0.19141 -1.09375,0.56641 -0.34375,0.49609 -0.50781,1.40625 -0.50781,2.73437 z m 0,0"
           style="fill:#000000;fill-opacity:1;fill-rule:nonzero;stroke:none;stroke-width:0.99999994"
           inkscape:connector-curvature="0" />
        <path
           id="path132-2"
           d="m 61.512464,-93.69581 h 22.5 v 22.5 h -22.5 z m 0,0"
           style="fill:#b0d9ff;fill-opacity:1;fill-rule:nonzero;stroke:#000000;stroke-width:1.25;stroke-linecap:round;stroke-linejoin:round;stroke-miterlimit:10;stroke-opacity:1"
           inkscape:connector-curvature="0" />
        <path
           id="path134-5"
           d="m 70.106214,-81.00832 0.99609,-0.13672 c 0.11719,0.5625 0.30078,0.96485 0.56641,1.21094 0.27343,0.25 0.60937,0.37109 1.01562,0.37109 0.45313,0 0.83985,-0.15625 1.15235,-0.46875 0.32031,-0.32422 0.48828,-0.72656 0.48828,-1.21093 0,-0.45313 -0.15235,-0.82422 -0.44922,-1.11329 -0.28906,-0.29687 -0.66016,-0.44921 -1.11328,-0.44921 -0.19532,0 -0.42969,0.0391 -0.70313,0.11719 l 0.11719,-0.87891 c 0.0625,0.0156 0.11719,0.0195 0.15625,0.0195 0.41406,0 0.78906,-0.10938 1.13281,-0.33204 0.33594,-0.21875 0.50781,-0.55859 0.50781,-1.01562 0,-0.36328 -0.1289,-0.66406 -0.37109,-0.89844 -0.25,-0.23437 -0.56641,-0.35156 -0.95703,-0.35156 -0.38281,0 -0.69922,0.125 -0.95703,0.37109 -0.25,0.23438 -0.41016,0.59376 -0.48828,1.07422 l -0.9961,-0.17578 c 0.125,-0.66406 0.39844,-1.17578 0.82032,-1.54296 0.42968,-0.36329 0.96093,-0.54688 1.60156,-0.54688 0.4375,0 0.84375,0.0977 1.21094,0.29296 0.37499,0.1836 0.66406,0.43751 0.85937,0.76173 0.19531,0.32812 0.29297,0.67187 0.29297,1.03515 0,0.35157 -0.0977,0.67188 -0.29297,0.95703 -0.1875,0.28907 -0.46094,0.51563 -0.82031,0.6836 0.47656,0.10546 0.84765,0.33203 1.11328,0.68359 0.25781,0.33984 0.39062,0.76953 0.39062,1.28907 0,0.70312 -0.26562,1.30468 -0.78125,1.79687 -0.50781,0.48437 -1.15234,0.72265 -1.93359,0.72265 -0.70312,0 -1.28906,-0.20703 -1.75781,-0.62499 -0.46875,-0.41406 -0.73828,-0.96094 -0.80078,-1.64063 z m 0,0"
           style="fill:#000000;fill-opacity:1;fill-rule:nonzero;stroke:none;stroke-width:0.99999994"
           inkscape:connector-curvature="0" />
        <path
           id="path142-4"
           d="m 106.51246,-71.19581 h 22.5 v 22.499996 h -22.5 z m 0,0"
           style="fill:#ffffff;fill-opacity:1;fill-rule:nonzero;stroke:#000000;stroke-width:1.25;stroke-linecap:round;stroke-linejoin:round;stroke-miterlimit:10;stroke-opacity:1"
           inkscape:connector-curvature="0" />
        <path
           id="path144-3"
           d="m 116.62965,-60.754414 c -0.42188,-0.14063 -0.72266,-0.35157 -0.91797,-0.625 -0.19531,-0.28516 -0.29297,-0.625 -0.29297,-1.01563 0,-0.58594 0.20313,-1.07422 0.625,-1.46484 0.42969,-0.40235 0.98438,-0.60547 1.67969,-0.60547 0.70312,0 1.26953,0.21094 1.69922,0.625 0.42968,0.40625 0.64453,0.89844 0.64453,1.48437 0,0.36719 -0.0977,0.69141 -0.29297,0.97657 -0.19531,0.27343 -0.5,0.48437 -0.89844,0.625 0.49219,0.17187 0.86719,0.4375 1.13282,0.80078 0.25781,0.35156 0.39062,0.77734 0.39062,1.26953 0,0.69141 -0.25,1.26953 -0.74219,1.73828 -0.48437,0.46875 -1.125,0.70313 -1.91406,0.70313 -0.79688,0 -1.44141,-0.23438 -1.93359,-0.70313 -0.48438,-0.46875 -0.72266,-1.05469 -0.72266,-1.75781 0,-0.51953 0.12499,-0.95703 0.39062,-1.3086 0.27344,-0.36328 0.65234,-0.60937 1.15235,-0.74218 z m -0.19532,-1.66016 c 0,0.37891 0.11719,0.69141 0.35157,0.9375 0.24219,0.23438 0.5664,0.35156 0.95703,0.35156 0.39063,0 0.70312,-0.11718 0.9375,-0.35156 0.24219,-0.24609 0.3711,-0.54687 0.3711,-0.89844 0,-0.35156 -0.12891,-0.64843 -0.3711,-0.89843 -0.25,-0.2461 -0.5625,-0.3711 -0.9375,-0.3711 -0.38281,0 -0.69531,0.125 -0.9375,0.3711 -0.25,0.23437 -0.3711,0.52343 -0.3711,0.85937 z m -0.33203,3.71094 c 0,0.28906 0.0625,0.5625 0.19532,0.82031 0.14062,0.26172 0.33984,0.46484 0.60546,0.60547 0.25782,0.14453 0.54688,0.21484 0.85938,0.21484 0.46875,0 0.84766,-0.14843 1.15234,-0.44922 0.3125,-0.29687 0.46875,-0.68359 0.46875,-1.15234 0,-0.48047 -0.15625,-0.87891 -0.46875,-1.19141 -0.31249,-0.3125 -0.71484,-0.46875 -1.1914,-0.46875 -0.46875,0 -0.85938,0.15625 -1.17188,0.46875 -0.30469,0.3125 -0.44922,0.69922 -0.44922,1.15235 z m 0,0"
           style="fill:#000000;fill-opacity:1;fill-rule:nonzero;stroke:none;stroke-width:0.99999994"
           inkscape:connector-curvature="0" />
        <path
           id="path146-0"
           d="m 106.51246,-93.69581 h 22.5 v 22.5 h -22.5 z m 0,0"
           style="fill:#ffffff;fill-opacity:1;fill-rule:nonzero;stroke:#000000;stroke-width:1.25;stroke-linecap:round;stroke-linejoin:round;stroke-miterlimit:10;stroke-opacity:1"
           inkscape:connector-curvature="0" />
        <path
           id="path148-7"
           d="m 115.10621,-80.98879 1.03516,-0.0977 c 0.0781,0.50781 0.2539,0.89454 0.52734,1.15235 0.28125,0.25 0.625,0.37109 1.01563,0.37109 0.47656,0 0.88281,-0.17578 1.21093,-0.52735 0.33594,-0.36327 0.50782,-0.83984 0.50782,-1.42578 0,-0.57031 -0.16797,-1.01952 -0.48829,-1.34765 -0.31249,-0.32422 -0.72265,-0.48829 -1.23046,-0.48829 -0.32813,0 -0.62109,0.0781 -0.87891,0.23438 -0.25,0.14453 -0.44922,0.32812 -0.60547,0.54688 l -0.91796,-0.11719 0.78124,-4.14062 h 4.00391 v 0.95703 h -3.22266 l -0.42969,2.14843 c 0.47657,-0.32422 0.98438,-0.48828 1.52344,-0.48828 0.70313,0 1.29297,0.24219 1.77734,0.72266 0.47657,0.48438 0.72267,1.10937 0.72267,1.875 0,0.73047 -0.21095,1.36328 -0.62501,1.89453 -0.52344,0.65235 -1.23046,0.97656 -2.1289,0.97656 -0.73438,0 -1.32813,-0.19922 -1.79688,-0.60546 -0.46094,-0.41407 -0.71875,-0.96094 -0.78125,-1.64063 z m 0,0"
           style="fill:#000000;fill-opacity:1;fill-rule:nonzero;stroke:none;stroke-width:0.99999994"
           inkscape:connector-curvature="0" />
        <path
           id="path156-8"
           d="m 106.51246,-116.19582 h 22.5 v 22.50001 h -22.5 z m 0,0"
           style="fill:#ffffff;fill-opacity:1;fill-rule:nonzero;stroke:#000000;stroke-width:1.25;stroke-linecap:round;stroke-linejoin:round;stroke-miterlimit:10;stroke-opacity:1"
           inkscape:connector-curvature="0" />
        <path
           id="path158-4"
           d="m 120.30152,-102.33644 v 0.95703 h -5.33203 c 0,-0.23438 0.0391,-0.46094 0.11719,-0.6836 0.14063,-0.36328 0.35937,-0.72265 0.66406,-1.07422 0.29688,-0.35156 0.72656,-0.7539 1.28906,-1.21093 0.86719,-0.72656 1.45313,-1.30079 1.75782,-1.71876 0.31249,-0.41406 0.46875,-0.81249 0.46875,-1.1914 0,-0.39062 -0.14844,-0.71485 -0.42969,-0.97656 -0.27344,-0.27344 -0.63672,-0.41016 -1.07422,-0.41016 -0.48438,0 -0.87109,0.14453 -1.15234,0.42969 -0.28907,0.28906 -0.42969,0.68359 -0.42969,1.1914 l -1.01563,-0.11718 c 0.0625,-0.75391 0.32032,-1.32813 0.78125,-1.71876 0.45313,-0.40233 1.06251,-0.60546 1.83594,-0.60546 0.76563,0 1.37109,0.21484 1.8164,0.64453 0.45313,0.42968 0.6836,0.95703 0.6836,1.58203 0,0.32812 -0.0703,0.64453 -0.19531,0.95703 -0.13282,0.3125 -0.35156,0.64453 -0.66406,0.9961 -0.30469,0.33984 -0.80078,0.80859 -1.50391,1.40625 -0.60156,0.49609 -0.98828,0.83593 -1.15234,1.01562 -0.17187,0.1836 -0.3086,0.35938 -0.41016,0.52735 z m 0,0"
           style="fill:#000000;fill-opacity:1;fill-rule:nonzero;stroke:none;stroke-width:0.99999994"
           inkscape:connector-curvature="0" />
        <path
           id="path166-9"
           d="m 84.012464,-71.19581 h 22.499996 v 22.499996 H 84.012464 Z m 0,0"
           style="fill:#ffffff;fill-opacity:1;fill-rule:nonzero;stroke:#000000;stroke-width:1.25;stroke-linecap:round;stroke-linejoin:round;stroke-miterlimit:10;stroke-opacity:1"
           inkscape:connector-curvature="0" />
        <path
           id="path168-2"
           d="m 92.664804,-63.371604 v -0.95703 h 5.21484 v 0.76172 c -0.50781,0.54687 -1.01562,1.27734 -1.52343,2.1875 -0.50782,0.89843 -0.89844,1.83203 -1.17188,2.79297 -0.19531,0.66406 -0.32422,1.40234 -0.37109,2.20703 h -1.01563 c 0.008,-0.63672 0.13672,-1.39844 0.3711,-2.28516 0.23437,-0.89844 0.57031,-1.76172 1.01562,-2.59766 0.45313,-0.83203 0.92578,-1.53515 1.42578,-2.10937 z m 0,0"
           style="fill:#000000;fill-opacity:1;fill-rule:nonzero;stroke:none;stroke-width:0.99999994"
           inkscape:connector-curvature="0" />
        <path
           id="path170-0"
           d="m 84.012464,-93.69581 h 22.499996 v 22.5 H 84.012464 Z m 0,0"
           style="fill:#b0d9ff;fill-opacity:1;fill-rule:nonzero;stroke:#000000;stroke-width:1.25;stroke-linecap:round;stroke-linejoin:round;stroke-miterlimit:10;stroke-opacity:1"
           inkscape:connector-curvature="0" />
        <path
           id="path172-6"
           d="M 95.770274,-78.87941 V -80.813 h -3.4961 v -0.89844 l 3.67188,-5.21485 h 0.82031 v 5.21485 h 1.09375 v 0.89844 h -1.09375 v 1.93359 z m 0,-2.83203 v -3.63282 l -2.51953,3.63282 z m 0,0"
           style="fill:#000000;fill-opacity:1;fill-rule:nonzero;stroke:none;stroke-width:0.99999994"
           inkscape:connector-curvature="0" />
        <path
           id="path180-6"
           d="m 61.512464,-71.19581 h 22.5 v 22.499996 h -22.5 z m 0,0"
           style="fill:#ffffff;fill-opacity:1;fill-rule:nonzero;stroke:#000000;stroke-width:1.25;stroke-linecap:round;stroke-linejoin:round;stroke-miterlimit:10;stroke-opacity:1"
           inkscape:connector-curvature="0" />
        <path
           id="path182-6"
           d="m 75.242924,-62.453634 -0.99609,0.0781 c -0.0781,-0.39062 -0.20703,-0.67578 -0.37109,-0.85937 -0.26563,-0.27344 -0.58594,-0.41016 -0.97656,-0.41016 -0.32813,0 -0.60547,0.0859 -0.83985,0.25391 -0.3125,0.23437 -0.5625,0.5664 -0.74219,0.99609 -0.17187,0.42969 -0.26562,1.05078 -0.27343,1.85547 0.23437,-0.35156 0.51562,-0.60937 0.85937,-0.78125 0.35156,-0.17969 0.71094,-0.27344 1.09375,-0.27344 0.66406,0 1.21875,0.24219 1.67969,0.72266 0.46875,0.48437 0.70312,1.10937 0.70312,1.875 0,0.50781 -0.11328,0.98437 -0.33203,1.42578 -0.22656,0.42969 -0.52343,0.76172 -0.89843,0.99609 -0.38282,0.21875 -0.8125,0.33204 -1.28907,0.33204 -0.82031,0 -1.49609,-0.29688 -2.01172,-0.89844 -0.52343,-0.60938 -0.78125,-1.61328 -0.78125,-3.00781 0,-1.54688 0.28125,-2.67969 0.85938,-3.39844 0.49219,-0.60938 1.17187,-0.91797 2.03125,-0.91797 0.625,0 1.13672,0.18359 1.54297,0.54687 0.39844,0.35157 0.64843,0.83985 0.74218,1.46485 z m -4.04296,3.45703 c 0,0.35156 0.0664,0.68359 0.21484,0.99609 0.14063,0.30078 0.33984,0.53516 0.60547,0.70313 0.25781,0.15625 0.53125,0.23437 0.82031,0.23437 0.41406,0 0.76953,-0.16015 1.07422,-0.48828 0.29687,-0.33594 0.44922,-0.80078 0.44922,-1.38672 0,-0.55859 -0.15235,-0.99609 -0.44922,-1.30859 -0.28906,-0.32422 -0.66016,-0.48828 -1.11328,-0.48828 -0.44531,0 -0.82031,0.16406 -1.13281,0.48828 -0.3125,0.3125 -0.46875,0.73047 -0.46875,1.25 z m 0,0"
           style="fill:#000000;fill-opacity:1;fill-rule:nonzero;stroke:none;stroke-width:0.99999994"
           inkscape:connector-curvature="0" />
        <path
           id="path184-4"
           d="m 166.83513,-79.79416 h 22.5 v 22.499996 h -22.5 z m 0,0"
           style="fill:#b0d9ff;fill-opacity:1;fill-rule:nonzero;stroke:#000000;stroke-width:1.25;stroke-linecap:round;stroke-linejoin:round;stroke-miterlimit:10;stroke-opacity:1"
           inkscape:connector-curvature="0" />
        <path
           id="path186-9"
           d="m 180.62028,-65.934794 v 0.95703 h -5.33204 c 0,-0.23438 0.0391,-0.46094 0.11718,-0.6836 0.14454,-0.36328 0.3633,-0.72265 0.66408,-1.07422 0.30078,-0.35156 0.73047,-0.7539 1.28906,-1.21093 0.87109,-0.726566 1.45702,-1.300776 1.7578,-1.718746 0.31251,-0.41407 0.46875,-0.8125 0.46875,-1.19141 0,-0.39062 -0.14452,-0.71484 -0.42969,-0.97656 -0.27342,-0.27344 -0.6328,-0.41016 -1.07421,-0.41016 -0.48046,0 -0.86718,0.14453 -1.15234,0.42969 -0.28515,0.28906 -0.42969,0.68359 -0.42969,1.19141 l -1.01562,-0.11719 c 0.0664,-0.75391 0.32422,-1.32813 0.78124,-1.71875 0.45704,-0.40235 1.06641,-0.60547 1.83594,-0.60547 0.76953,0 1.37501,0.21484 1.81641,0.64453 0.45702,0.42969 0.6836,0.95703 0.6836,1.58203 0,0.32813 -0.0664,0.64453 -0.19532,0.95703 -0.12891,0.3125 -0.35157,0.64453 -0.66406,0.9961 -0.30078,0.33984 -0.80078,0.808586 -1.5039,1.406246 -0.59766,0.49609 -0.98438,0.83593 -1.15235,1.01562 -0.16797,0.1836 -0.30469,0.35938 -0.41016,0.52735 z m 0,0"
           style="fill:#000000;fill-opacity:1;fill-rule:nonzero;stroke:none;stroke-width:0.99999994"
           inkscape:connector-curvature="0" />
        <path
           id="path188-5"
           d="m 189.33513,-79.79416 h 22.5 v 22.499996 h -22.5 z m 0,0"
           style="fill:#b0d9ff;fill-opacity:1;fill-rule:nonzero;stroke:#000000;stroke-width:1.25;stroke-linecap:round;stroke-linejoin:round;stroke-miterlimit:10;stroke-opacity:1"
           inkscape:connector-curvature="0" />
        <path
           id="path190-0"
           d="m 197.92497,-67.106674 0.99609,-0.13672 c 0.11719,0.5625 0.30469,0.96485 0.56641,1.21094 0.27342,0.25 0.61328,0.37109 1.01562,0.37109 0.45702,0 0.83984,-0.15625 1.15233,-0.46875 0.32423,-0.32422 0.4883,-0.72656 0.4883,-1.21093 0,-0.45313 -0.14844,-0.824216 -0.44922,-1.113286 -0.28517,-0.29687 -0.65625,-0.44921 -1.11329,-0.44921 -0.19531,0 -0.42969,0.0391 -0.70312,0.11718 l 0.11719,-0.8789 c 0.0664,0.0156 0.11718,0.0195 0.15624,0.0195 0.41798,0 0.79298,-0.10938 1.13282,-0.33203 0.33984,-0.21875 0.50781,-0.5586 0.50781,-1.01563 0,-0.36328 -0.125,-0.66406 -0.37109,-0.89844 -0.24609,-0.23437 -0.56641,-0.35156 -0.95703,-0.35156 -0.37891,0 -0.69531,0.125 -0.95703,0.3711 -0.2461,0.23437 -0.41016,0.59375 -0.48828,1.07421 l -0.9961,-0.17578 c 0.12891,-0.66406 0.40234,-1.17578 0.8203,-1.54296 0.42969,-0.36329 0.96486,-0.54688 1.60158,-0.54688 0.44139,0 0.84765,0.0977 1.21092,0.29297 0.37892,0.18359 0.66408,0.4375 0.85938,0.76172 0.19532,0.32812 0.29298,0.67187 0.29298,1.03515 0,0.35157 -0.0977,0.67188 -0.29298,0.95703 -0.18358,0.28907 -0.45702,0.51563 -0.8203,0.6836 0.48046,0.10547 0.85156,0.33203 1.11328,0.68359 0.26172,0.33985 0.39062,0.769526 0.39062,1.289056 0,0.70313 -0.26172,1.30469 -0.78125,1.79688 -0.50781,0.48437 -1.15234,0.72266 -1.93359,0.72266 -0.70314,0 -1.28907,-0.20704 -1.75782,-0.625 -0.46875,-0.41407 -0.73437,-0.96094 -0.80077,-1.64063 z m 0,0"
           style="fill:#000000;fill-opacity:1;fill-rule:nonzero;stroke:none;stroke-width:0.99999994"
           inkscape:connector-curvature="0" />
        <path
           id="path192-4"
           d="m 189.33513,-102.29416 h 22.5 v 22.5 h -22.5 z m 0,0"
           style="fill:#b0d9ff;fill-opacity:1;fill-rule:nonzero;stroke:#000000;stroke-width:1.25;stroke-linecap:round;stroke-linejoin:round;stroke-miterlimit:10;stroke-opacity:1"
           inkscape:connector-curvature="0" />
        <path
           id="path194-8"
           d="m 201.65542,-87.47776 h -0.99609 v -6.3086 c -0.23436,0.23438 -0.54687,0.46875 -0.9375,0.70313 -0.39061,0.22266 -0.73437,0.38672 -1.03515,0.48828 v -0.95703 c 0.54687,-0.24609 1.02735,-0.55078 1.44531,-0.91797 0.41798,-0.375 0.71094,-0.74219 0.87891,-1.09375 h 0.64452 z m 0,0"
           style="fill:#000000;fill-opacity:1;fill-rule:nonzero;stroke:none;stroke-width:0.99999994"
           inkscape:connector-curvature="0" />
        <path
           id="path196-7"
           d="m 166.83513,-102.29416 h 22.5 v 22.5 h -22.5 z m 0,0"
           style="fill:#b0d9ff;fill-opacity:1;fill-rule:nonzero;stroke:#000000;stroke-width:1.25;stroke-linecap:round;stroke-linejoin:round;stroke-miterlimit:10;stroke-opacity:1"
           inkscape:connector-curvature="0" />
        <path
           id="path198-1"
           d="m 175.42497,-91.44261 c 0,-0.94921 0.0977,-1.71874 0.29296,-2.30468 0.19532,-0.58594 0.48047,-1.03516 0.85938,-1.34766 0.39062,-0.3125 0.87891,-0.46875 1.46484,-0.46875 0.44141,0 0.82812,0.0937 1.15235,0.27343 0.32422,0.17188 0.59374,0.41798 0.80077,0.7422 0.20703,0.32812 0.3711,0.72265 0.48828,1.1914 0.12891,0.46875 0.19532,1.10938 0.19532,1.91406 0,0.9375 -0.0977,1.69922 -0.29297,2.28516 -0.19531,0.57422 -0.48828,1.02344 -0.87891,1.34765 -0.3789,0.31251 -0.86718,0.46875 -1.46484,0.46875 -0.76953,0 -1.375,-0.27734 -1.81641,-0.83984 -0.53515,-0.66406 -0.80077,-1.75 -0.80077,-3.26172 z m 1.01562,0 c 0,1.31641 0.14844,2.19532 0.44922,2.63672 0.31249,0.42969 0.69531,0.64453 1.15234,0.64453 0.45702,0 0.83985,-0.21484 1.15235,-0.64453 0.31249,-0.4414 0.46875,-1.32031 0.46875,-2.63672 0,-1.32812 -0.15626,-2.20703 -0.46875,-2.63671 -0.3125,-0.44141 -0.69533,-0.66407 -1.15235,-0.66407 -0.45703,0 -0.82032,0.19141 -1.09375,0.56641 -0.33984,0.49609 -0.50781,1.40625 -0.50781,2.73437 z m 0,0"
           style="fill:#000000;fill-opacity:1;fill-rule:nonzero;stroke:none;stroke-width:0.99999994"
           inkscape:connector-curvature="0" />
        <path
           id="path232-1"
           d="m 276.27103,-103.05064 h 22.5 v 22.50001 h -22.5 z m 0,0"
           style="fill:#ffffff;fill-opacity:1;fill-rule:nonzero;stroke:#000000;stroke-width:1.25;stroke-linecap:round;stroke-linejoin:round;stroke-miterlimit:10;stroke-opacity:1"
           inkscape:connector-curvature="0" />
        <path
           id="path242-5"
           d="m 253.77103,-103.05064 h 22.5 v 22.50001 h -22.5 z m 0,0"
           style="fill:#b0d9ff;fill-opacity:1;fill-rule:nonzero;stroke:#000000;stroke-width:1.25;stroke-linecap:round;stroke-linejoin:round;stroke-miterlimit:10;stroke-opacity:1"
           inkscape:connector-curvature="0" />
        <path
           id="path252-7"
           d="m 276.27103,-80.55063 h 22.5 v 22.500004 h -22.5 z m 0,0"
           style="fill:#ffffff;fill-opacity:1;fill-rule:nonzero;stroke:#000000;stroke-width:1.25;stroke-linecap:round;stroke-linejoin:round;stroke-miterlimit:10;stroke-opacity:1"
           inkscape:connector-curvature="0" />
        <path
           id="path254-3"
           d="m 261.86274,-88.00809 h -0.99609 v -6.3086 c -0.23437,0.23438 -0.54687,0.46875 -0.9375,0.70313 -0.39062,0.22266 -0.73828,0.38672 -1.03516,0.48828 v -0.95703 c 0.54688,-0.24609 1.02344,-0.55078 1.44532,-0.91797 0.41406,-0.375 0.70703,-0.74219 0.8789,-1.09375 h 0.64453 z m 0,0"
           style="fill:#000000;fill-opacity:1;fill-rule:nonzero;stroke:none;stroke-width:0.99999994"
           inkscape:connector-curvature="0" />
        <path
           id="path256-6"
           d="m 264.54634,-89.86356 0.9375,-0.0977 c 0.0781,0.44531 0.22265,0.76953 0.44922,0.97656 0.23437,0.19531 0.53125,0.29297 0.89843,0.29297 0.29688,0 0.55469,-0.0625 0.78125,-0.19531 0.23438,-0.14063 0.41797,-0.33204 0.56641,-0.56641 0.15625,-0.23438 0.27734,-0.54687 0.37109,-0.9375 0.10157,-0.39062 0.15625,-0.79297 0.15625,-1.21094 0,-0.0391 -0.0117,-0.10156 -0.0195,-0.19531 -0.19531,0.3125 -0.46484,0.56641 -0.80078,0.76172 -0.34375,0.19532 -0.71484,0.29297 -1.11328,0.29297 -0.66406,0 -1.23047,-0.23828 -1.69922,-0.72266 -0.46094,-0.48046 -0.68359,-1.11718 -0.68359,-1.91406 0,-0.82031 0.23828,-1.47656 0.72265,-1.97266 0.47657,-0.49218 1.08204,-0.74218 1.81641,-0.74218 0.51563,0 0.99609,0.14453 1.42578,0.42968 0.42969,0.27344 0.75,0.67188 0.97656,1.19141 0.23438,0.52344 0.35157,1.27734 0.35157,2.26563 0,1.03125 -0.11328,1.85156 -0.33203,2.46093 -0.22657,0.61329 -0.5586,1.08204 -0.9961,1.40625 -0.44531,0.31251 -0.96875,0.46875 -1.5625,0.46875 -0.625,0 -1.14453,-0.17578 -1.54297,-0.52734 -0.39062,-0.35157 -0.625,-0.83985 -0.70312,-1.46484 z m 4.04297,-3.55469 c 0,-0.57031 -0.15625,-1.01953 -0.46875,-1.34766 -0.30469,-0.33593 -0.66016,-0.50781 -1.07422,-0.50781 -0.44531,0 -0.83203,0.18359 -1.15235,0.54688 -0.32812,0.35156 -0.48828,0.8164 -0.48828,1.38672 0,0.50781 0.14453,0.92578 0.44922,1.24999 0.3125,0.31251 0.69141,0.46875 1.15235,0.46875 0.46875,0 0.84375,-0.15624 1.13281,-0.46875 0.29687,-0.32421 0.44922,-0.76562 0.44922,-1.32812 z m 0,0"
           style="fill:#000000;fill-opacity:1;fill-rule:nonzero;stroke:none;stroke-width:0.99999994"
           inkscape:connector-curvature="0" />
        <path
           id="path264-9"
           d="m 287.30228,-89.19126 v 0.95703 h -5.33203 c 0,-0.23438 0.0391,-0.46094 0.11718,-0.6836 0.14063,-0.36328 0.35938,-0.72265 0.66407,-1.07422 0.29687,-0.35156 0.72656,-0.7539 1.28906,-1.21093 0.86719,-0.72656 1.45312,-1.30079 1.75781,-1.71875 0.3125,-0.41406 0.46875,-0.8125 0.46875,-1.19141 0,-0.39062 -0.14844,-0.71485 -0.42969,-0.97656 -0.27343,-0.27344 -0.63671,-0.41016 -1.07421,-0.41016 -0.48438,0 -0.8711,0.14453 -1.15235,0.42969 -0.28906,0.28906 -0.42969,0.6836 -0.42969,1.19141 l -1.01562,-0.11719 c 0.0625,-0.75391 0.32031,-1.32812 0.78125,-1.71875 0.45312,-0.40235 1.0625,-0.60547 1.83594,-0.60547 0.76562,0 1.37109,0.21484 1.8164,0.64453 0.45313,0.42969 0.6836,0.95703 0.6836,1.58203 0,0.32813 -0.0703,0.64454 -0.19532,0.95703 -0.13281,0.3125 -0.35156,0.64454 -0.66406,0.9961 -0.30469,0.33984 -0.80078,0.80859 -1.5039,1.40625 -0.60157,0.49609 -0.98829,0.83593 -1.15235,1.01562 -0.17187,0.1836 -0.30859,0.35938 -0.41015,0.52735 z m 0,0"
           style="fill:#000000;fill-opacity:1;fill-rule:nonzero;stroke:none;stroke-width:0.99999994"
           inkscape:connector-curvature="0" />
        <path
           id="path266-4"
           d="m 288.36478,-90.34361 1.03515,-0.0977 c 0.0781,0.50781 0.25391,0.89454 0.52735,1.15235 0.28125,0.25 0.625,0.37109 1.01562,0.37109 0.47657,0 0.88282,-0.17578 1.21094,-0.52735 0.33594,-0.36327 0.50781,-0.83984 0.50781,-1.42578 0,-0.57031 -0.16797,-1.01952 -0.48828,-1.34765 -0.3125,-0.32422 -0.72265,-0.48829 -1.23047,-0.48829 -0.32812,0 -0.62109,0.0781 -0.8789,0.23438 -0.25,0.14453 -0.44922,0.32812 -0.60547,0.54688 l -0.91797,-0.11719 0.78125,-4.14062 h 4.00391 v 0.95703 h -3.22266 l -0.42969,2.14843 c 0.47656,-0.32422 0.98438,-0.48828 1.52344,-0.48828 0.70312,0 1.29297,0.24219 1.77734,0.72266 0.47657,0.48438 0.72266,1.10937 0.72266,1.875 0,0.73047 -0.21094,1.36328 -0.625,1.89453 -0.52344,0.65235 -1.23047,0.97656 -2.12891,0.97656 -0.73437,0 -1.32812,-0.19922 -1.79687,-0.60546 -0.46094,-0.41407 -0.71875,-0.96094 -0.78125,-1.64063 z m 0,0"
           style="fill:#000000;fill-opacity:1;fill-rule:nonzero;stroke:none;stroke-width:0.99999994"
           inkscape:connector-curvature="0" />
        <path
           id="path268-8"
           d="m 253.77103,-80.55063 h 22.5 v 22.500004 h -22.5 z m 0,0"
           style="fill:#ffffff;fill-opacity:1;fill-rule:nonzero;stroke:#000000;stroke-width:1.25;stroke-linecap:round;stroke-linejoin:round;stroke-miterlimit:10;stroke-opacity:1"
           inkscape:connector-curvature="0" />
        <path
           id="path274-9"
           d="m 259.19294,-66.576346 0.99609,-0.13672 c 0.11719,0.5625 0.30078,0.96485 0.56641,1.21094 0.27343,0.25 0.60937,0.37109 1.01562,0.37109 0.45313,0 0.83984,-0.15625 1.15234,-0.46875 0.32032,-0.32422 0.48829,-0.72656 0.48829,-1.21093 0,-0.45313 -0.15235,-0.82421 -0.44922,-1.11328 -0.28907,-0.29687 -0.66016,-0.44921 -1.11328,-0.44921 -0.19532,0 -0.42969,0.0391 -0.70313,0.11718 l 0.11719,-0.8789 c 0.0625,0.0156 0.11719,0.0195 0.15625,0.0195 0.41406,0 0.78906,-0.10938 1.13281,-0.33203 0.33594,-0.21875 0.50781,-0.5586 0.50781,-1.01563 0,-0.363284 -0.1289,-0.664064 -0.37109,-0.898444 -0.25,-0.23437 -0.56641,-0.35156 -0.95703,-0.35156 -0.38281,0 -0.69922,0.125 -0.95703,0.3711 -0.25,0.23437 -0.41016,0.593754 -0.48828,1.074214 l -0.9961,-0.17578 c 0.125,-0.664064 0.39844,-1.175784 0.82031,-1.542964 0.42969,-0.36329 0.96094,-0.54688 1.60157,-0.54688 0.4375,0 0.84375,0.0977 1.21093,0.29297 0.375,0.18359 0.66407,0.4375 0.85938,0.76172 0.19531,0.32812 0.29297,0.67187 0.29297,1.035154 0,0.35157 -0.0977,0.67188 -0.29297,0.95703 -0.1875,0.28907 -0.46094,0.51563 -0.82031,0.6836 0.47656,0.10547 0.84765,0.33203 1.11328,0.68359 0.25781,0.33985 0.39062,0.76952 0.39062,1.28905 0,0.70313 -0.26562,1.30469 -0.78125,1.79688 -0.50781,0.48437 -1.15234,0.72266 -1.93359,0.72266 -0.70313,0 -1.28906,-0.20704 -1.75781,-0.625 -0.46875,-0.41407 -0.73828,-0.96094 -0.80078,-1.64063 z m 0,0"
           style="fill:#000000;fill-opacity:1;fill-rule:nonzero;stroke:none;stroke-width:0.99999994"
           inkscape:connector-curvature="0" />
        <path
           id="path276-3"
           d="m 265.50934,-71.43962 v -0.95703 h 5.21485 v 0.76172 c -0.50782,0.54687 -1.01563,1.277344 -1.52344,2.187504 -0.50781,0.89843 -0.89844,1.83203 -1.17188,2.79296 -0.19531,0.66406 -0.32422,1.40234 -0.37109,2.20703 h -1.01563 c 0.008,-0.63672 0.13672,-1.39844 0.3711,-2.28516 0.23437,-0.89843 0.57031,-1.76171 1.01562,-2.59765 0.45313,-0.83203 0.92578,-1.535154 1.42578,-2.109374 z m 0,0"
           style="fill:#000000;fill-opacity:1;fill-rule:nonzero;stroke:none;stroke-width:0.99999994"
           inkscape:connector-curvature="0" />
        <path
           id="path278-9"
           d="m 146.39162,-82.13516 0.50783,-1.5625 c 1.16014,0.40625 2.00389,0.75782 2.53904,1.05469 -0.14452,-1.3125 -0.21483,-2.22656 -0.21483,-2.73437 h 1.58202 c -0.0273,0.73437 -0.10938,1.64062 -0.2539,2.73437 0.75392,-0.375 1.62109,-0.72656 2.59766,-1.05469 l 0.50781,1.5625 c -0.9375,0.30469 -1.84766,0.50391 -2.73439,0.60547 0.44142,0.39063 1.07423,1.08594 1.89456,2.07031 l -1.32814,0.9375 c -0.42969,-0.57031 -0.92969,-1.35547 -1.50392,-2.36328 -0.54687,1.04687 -1.02341,1.83203 -1.42578,2.36328 l -1.30858,-0.9375 c 0.85936,-1.03906 1.47265,-1.72656 1.83594,-2.07031 -0.94922,-0.17969 -1.84766,-0.3789 -2.69532,-0.60547 z m 0,0"
           style="fill:#000000;fill-opacity:1;fill-rule:nonzero;stroke:none;stroke-width:0.99999994"
           inkscape:connector-curvature="0" />
        <path
           id="path280-0"
           d="m 235.10281,-82.39183 h -10.64452 v -1.83594 h 10.64452 z m 0,4.88282 h -10.64452 v -1.83594 h 10.64452 z m 0,0"
           style="fill:#000000;fill-opacity:1;fill-rule:nonzero;stroke:none;stroke-width:0.99999994"
           inkscape:connector-curvature="0" />
        <path
           id="path282-8"
           d="m 262.27864,-138.22642 c 0,-1.32813 0.35547,-2.36719 1.07422,-3.12501 0.71094,-0.76562 1.64063,-1.15234 2.77344,-1.15234 0.74219,0 1.41016,0.1875 2.01172,0.54688 0.59375,0.35156 1.05469,0.85156 1.36719,1.48437 0.3125,0.64063 0.46875,1.35938 0.46875,2.14844 0,0.82031 -0.16797,1.55859 -0.48828,2.20703 -0.32813,0.64062 -0.79688,1.12891 -1.40625,1.46484 -0.60157,0.32813 -1.25,0.48828 -1.95313,0.48828 -0.75781,0 -1.4375,-0.17968 -2.03125,-0.54687 -0.60156,-0.36328 -1.05469,-0.86328 -1.36719,-1.50391 -0.30468,-0.63281 -0.44922,-1.30859 -0.44922,-2.01171 z m 1.09375,0.0195 c 0,0.97656 0.25782,1.74999 0.78125,2.30468 0.51563,0.54688 1.17579,0.82031 1.97266,0.82031 0.78906,0 1.44922,-0.27734 1.97266,-0.83984 0.51562,-0.55859 0.78125,-1.35547 0.78125,-2.40234 0,-0.64844 -0.11328,-1.21485 -0.33203,-1.69922 -0.22657,-0.49219 -0.54688,-0.87891 -0.97657,-1.15234 -0.42968,-0.27344 -0.91015,-0.41016 -1.42578,-0.41016 -0.75781,0 -1.40625,0.26172 -1.95312,0.78125 -0.54688,0.52344 -0.82032,1.38672 -0.82032,2.59766 z m 0,0"
           style="fill:#000000;fill-opacity:1;fill-rule:nonzero;stroke:none;stroke-width:0.99999994"
           inkscape:connector-curvature="0" />
        <path
           id="path284-8"
           d="m 275.05208,-134.30064 v -0.85938 c -0.46094,0.66406 -1.07422,0.99609 -1.85547,0.99609 -0.34375,0 -0.66015,-0.0664 -0.95703,-0.19531 -0.30469,-0.14062 -0.52734,-0.3125 -0.68359,-0.50781 -0.14844,-0.19531 -0.2461,-0.43359 -0.29297,-0.72266 -0.0391,-0.19531 -0.0586,-0.50781 -0.0586,-0.9375 v -3.61328 h 0.97656 v 3.24219 c 0,0.52344 0.0234,0.87109 0.0781,1.03516 0.0469,0.26562 0.17579,0.46875 0.3711,0.625 0.20312,0.14843 0.45704,0.21484 0.76172,0.21484 0.29688,0 0.57421,-0.0664 0.83985,-0.21484 0.2578,-0.15625 0.43749,-0.35938 0.54687,-0.625 0.10156,-0.25782 0.15624,-0.64454 0.15624,-1.15235 v -3.125 h 0.9961 v 5.83985 z m 0,0"
           style="fill:#000000;fill-opacity:1;fill-rule:nonzero;stroke:none;stroke-width:0.99999994"
           inkscape:connector-curvature="0" />
        <path
           id="path286-5"
           d="m 279.64583,-135.17955 0.13672,0.85937 c -0.28906,0.0625 -0.53906,0.0977 -0.74219,0.0977 -0.36718,0 -0.64453,-0.0586 -0.83984,-0.17578 -0.19531,-0.11718 -0.34375,-0.26172 -0.42969,-0.44922 -0.0781,-0.17968 -0.11719,-0.5664 -0.11719,-1.15234 v -3.35937 h -0.72265 v -0.78125 h 0.72265 v -1.44532 l 0.9961,-0.58594 v 2.03125 h 0.99609 v 0.78125 h -0.99609 v 3.39844 c 0,0.28906 0.008,0.46875 0.0391,0.54688 0.0391,0.0781 0.0977,0.14453 0.17578,0.19531 0.0781,0.0547 0.1836,0.0781 0.33203,0.0781 0.11719,0 0.26172,-0.0117 0.44922,-0.0391 z m 0,0"
           style="fill:#000000;fill-opacity:1;fill-rule:nonzero;stroke:none;stroke-width:0.99999994"
           inkscape:connector-curvature="0" />
        <path
           id="path288-0"
           d="m 280.60286,-132.07408 v -8.06641 h 0.89844 v 0.76172 c 0.20313,-0.29687 0.4375,-0.51562 0.70313,-0.66406 0.27343,-0.14063 0.60546,-0.21484 0.99609,-0.21484 0.49219,0 0.92578,0.13281 1.30859,0.39062 0.375,0.25 0.66407,0.60547 0.85938,1.07422 0.19531,0.46875 0.29297,0.97656 0.29297,1.52344 0,0.60156 -0.11328,1.14062 -0.33203,1.62109 -0.21094,0.48437 -0.51954,0.85547 -0.91797,1.11328 -0.40625,0.24219 -0.83594,0.37109 -1.28907,0.37109 -0.32812,0 -0.62109,-0.0742 -0.8789,-0.21484 -0.26563,-0.14062 -0.48047,-0.31641 -0.64453,-0.52734 v 2.83203 z m 0.89844,-5.11719 c 0,0.75781 0.14453,1.32031 0.44922,1.67969 0.3125,0.35156 0.68359,0.52734 1.11328,0.52734 0.42969,0 0.80078,-0.17969 1.11328,-0.54687 0.32031,-0.375 0.48828,-0.95703 0.48828,-1.73828 0,-0.74219 -0.15625,-1.29297 -0.46875,-1.66016 -0.30468,-0.375 -0.66406,-0.56641 -1.09375,-0.56641 -0.42187,0 -0.79297,0.20313 -1.11328,0.60547 -0.32812,0.39063 -0.48828,0.95703 -0.48828,1.69922 z m 0,0"
           style="fill:#000000;fill-opacity:1;fill-rule:nonzero;stroke:none;stroke-width:0.99999994"
           inkscape:connector-curvature="0" />
        <path
           id="path290-9"
           d="m 290.68099,-134.30064 v -0.85938 c -0.45703,0.66406 -1.07422,0.99609 -1.85547,0.99609 -0.33984,0 -0.65625,-0.0664 -0.95703,-0.19531 -0.30078,-0.14062 -0.52735,-0.3125 -0.6836,-0.50781 -0.14453,-0.19531 -0.24218,-0.43359 -0.29296,-0.72266 -0.0391,-0.19531 -0.0586,-0.50781 -0.0586,-0.9375 v -3.61328 h 0.97656 v 3.24219 c 0,0.52344 0.0274,0.87109 0.0781,1.03516 0.0508,0.26562 0.17578,0.46875 0.3711,0.625 0.20703,0.14843 0.46093,0.21484 0.76171,0.21484 0.30078,0 0.57813,-0.0664 0.83985,-0.21484 0.26171,-0.15625 0.44141,-0.35938 0.54687,-0.625 0.10547,-0.25782 0.15626,-0.64454 0.15626,-1.15235 v -3.125 h 0.99609 v 5.83985 z m 0,0"
           style="fill:#000000;fill-opacity:1;fill-rule:nonzero;stroke:none;stroke-width:0.99999994"
           inkscape:connector-curvature="0" />
        <path
           id="path292-6"
           d="m 295.27474,-135.17955 0.13672,0.85937 c -0.28907,0.0625 -0.53516,0.0977 -0.74219,0.0977 -0.36719,0 -0.64453,-0.0586 -0.83984,-0.17578 -0.19532,-0.11718 -0.33985,-0.26172 -0.42969,-0.44922 -0.0781,-0.17968 -0.11719,-0.5664 -0.11719,-1.15234 v -3.35937 h -0.72266 v -0.78125 h 0.72266 v -1.44532 l 0.99609,-0.58594 v 2.03125 h 0.9961 v 0.78125 h -0.9961 v 3.39844 c 0,0.28906 0.0117,0.46875 0.0391,0.54688 0.0391,0.0781 0.0976,0.14453 0.17578,0.19531 0.0781,0.0547 0.1875,0.0781 0.33203,0.0781 0.11719,0 0.26562,-0.0117 0.44922,-0.0391 z m 0,0"
           style="fill:#000000;fill-opacity:1;fill-rule:nonzero;stroke:none;stroke-width:0.99999994"
           inkscape:connector-curvature="0" />
        <path
           id="path294-3"
           d="m 172.45506,-131.64899 v -8.04688 h 1.07421 v 3.98438 l 4.00391,-3.98438 h 1.42579 l -3.35938,3.26172 3.51562,4.78516 h -1.40625 l -2.87109,-4.08204 -1.3086,1.28907 v 2.79297 z m 0,0"
           style="fill:#000000;fill-opacity:1;fill-rule:nonzero;stroke:none;stroke-width:0.99999994"
           inkscape:connector-curvature="0" />
        <path
           id="path296-8"
           d="m 183.8613,-133.52399 1.03517,0.11718 c -0.16797,0.60157 -0.47657,1.07032 -0.91797,1.40625 -0.42969,0.32813 -0.98438,0.48828 -1.66016,0.48828 -0.84766,0 -1.52344,-0.25781 -2.03125,-0.78124 -0.4961,-0.53126 -0.74219,-1.27344 -0.74219,-2.22657 0,-0.97656 0.25391,-1.73047 0.76172,-2.26562 0.50781,-0.54688 1.16406,-0.82031 1.97266,-0.82031 0.78125,0 1.41405,0.26953 1.89453,0.80078 0.49608,0.52343 0.74219,1.26562 0.74219,2.22656 0,0.0703 0,0.15625 0,0.27344 h -4.35548 c 0.0391,0.64062 0.22266,1.1289 0.54687,1.46484 0.32423,0.33984 0.73439,0.50781 1.23048,0.50781 0.36327,0 0.67188,-0.0898 0.91797,-0.27344 0.26172,-0.19531 0.46094,-0.49609 0.60546,-0.91796 z m -3.24219,-1.60157 h 3.26172 c -0.0391,-0.49218 -0.16405,-0.86328 -0.37108,-1.11328 -0.3125,-0.375 -0.72266,-0.5664 -1.23047,-0.5664 -0.45703,0 -0.83985,0.15625 -1.15236,0.46875 -0.30078,0.30468 -0.46875,0.70312 -0.50781,1.21093 z m 0,0"
           style="fill:#000000;fill-opacity:1;fill-rule:nonzero;stroke:none;stroke-width:0.99999994"
           inkscape:connector-curvature="0" />
        <path
           id="path298-5"
           d="m 186.11522,-131.64899 v -5.83985 h 0.89842 v 0.89844 c 0.22266,-0.41406 0.42969,-0.6875 0.62501,-0.82031 0.19531,-0.12891 0.41016,-0.19531 0.64453,-0.19531 0.32421,0 0.66407,0.10546 1.01562,0.31249 l -0.35155,0.91797 c -0.23438,-0.14062 -0.47657,-0.21484 -0.72266,-0.21484 -0.20703,0 -0.40234,0.0664 -0.58594,0.19531 -0.16797,0.13281 -0.29297,0.3125 -0.37109,0.54688 -0.10548,0.35156 -0.15625,0.73828 -0.15625,1.15234 v 3.04688 z m 0,0"
           style="fill:#000000;fill-opacity:1;fill-rule:nonzero;stroke:none;stroke-width:0.99999994"
           inkscape:connector-curvature="0" />
        <path
           id="path300-6"
           d="m 189.88083,-131.64899 v -5.83985 h 0.89844 v 0.83985 c 0.41798,-0.63282 1.03515,-0.95703 1.85547,-0.95703 0.35157,0 0.67188,0.0664 0.95703,0.19531 0.30078,0.11718 0.51954,0.28515 0.66407,0.48828 0.14452,0.19531 0.24609,0.4375 0.31249,0.72265 0.0391,0.1836 0.0586,0.50391 0.0586,0.95704 v 3.59375 h -0.99609 v -3.55469 c 0,-0.39844 -0.0391,-0.70313 -0.1172,-0.89844 -0.0781,-0.19531 -0.21483,-0.35156 -0.41014,-0.46875 -0.19532,-0.125 -0.42188,-0.19531 -0.6836,-0.19531 -0.41797,0 -0.78126,0.13672 -1.09375,0.41015 -0.30078,0.26172 -0.44922,0.76954 -0.44922,1.52344 v 3.1836 z m 0,0"
           style="fill:#000000;fill-opacity:1;fill-rule:nonzero;stroke:none;stroke-width:0.99999994"
           inkscape:connector-curvature="0" />
        <path
           id="path302-1"
           d="m 200.12303,-133.52399 1.03515,0.11718 c -0.17187,0.60157 -0.47657,1.07032 -0.91796,1.40625 -0.42969,0.32813 -0.98439,0.48828 -1.66017,0.48828 -0.84765,0 -1.52343,-0.25781 -2.03124,-0.78124 -0.49609,-0.53126 -0.7422,-1.27344 -0.7422,-2.22657 0,-0.97656 0.25392,-1.73047 0.76173,-2.26562 0.50781,-0.54688 1.16406,-0.82031 1.97265,-0.82031 0.78126,0 1.41015,0.26953 1.89453,0.80078 0.4922,0.52343 0.7422,1.26562 0.7422,2.22656 0,0.0703 0,0.15625 0,0.27344 h -4.35547 c 0.0391,0.64062 0.21874,1.1289 0.54687,1.46484 0.32422,0.33984 0.73438,0.50781 1.23046,0.50781 0.36329,0 0.66798,-0.0898 0.91797,-0.27344 0.25782,-0.19531 0.46095,-0.49609 0.60548,-0.91796 z m -3.24219,-1.60157 h 3.26172 c -0.0391,-0.49218 -0.16406,-0.86328 -0.37109,-1.11328 -0.31251,-0.375 -0.72267,-0.5664 -1.23048,-0.5664 -0.45702,0 -0.83985,0.15625 -1.15234,0.46875 -0.30078,0.30468 -0.46875,0.70312 -0.50781,1.21093 z m 0,0"
           style="fill:#000000;fill-opacity:1;fill-rule:nonzero;stroke:none;stroke-width:0.99999994"
           inkscape:connector-curvature="0" />
        <path
           id="path304-1"
           d="m 202.37693,-131.64899 v -8.04688 h 0.97657 v 8.04688 z m 0,0"
           style="fill:#000000;fill-opacity:1;fill-rule:nonzero;stroke:none;stroke-width:0.99999994"
           inkscape:connector-curvature="0" />
        <path
           id="path306-5"
           d="m 81.228693,-134.30064 v -8.04688 h 1.05468 v 8.04688 z m 0,0"
           style="fill:#000000;fill-opacity:1;fill-rule:nonzero;stroke:none;stroke-width:0.99999994"
           inkscape:connector-curvature="0" />
        <path
           id="path308-9"
           d="m 84.041193,-134.30064 v -5.83985 h 0.89843 v 0.83985 c 0.41797,-0.63282 1.03516,-0.95703 1.85547,-0.95703 0.35157,0 0.67188,0.0664 0.95703,0.19531 0.30079,0.11718 0.51954,0.28515 0.66407,0.48828 0.14453,0.19531 0.24609,0.4375 0.3125,0.72265 0.0391,0.1836 0.0586,0.50391 0.0586,0.95704 v 3.59375 h -0.9961 v -3.55469 c 0,-0.39844 -0.0391,-0.70313 -0.11718,-0.89844 -0.0781,-0.19531 -0.21485,-0.35156 -0.41016,-0.46875 -0.19531,-0.125 -0.42187,-0.19531 -0.68359,-0.19531 -0.41797,0 -0.78125,0.13672 -1.09375,0.41015 -0.30078,0.26172 -0.44922,0.76954 -0.44922,1.52344 v 3.1836 z m 0,0"
           style="fill:#000000;fill-opacity:1;fill-rule:nonzero;stroke:none;stroke-width:0.99999994"
           inkscape:connector-curvature="0" />
        <path
           id="path310-8"
           d="m 90.295093,-132.07408 v -8.06641 h 0.89844 v 0.76172 c 0.20703,-0.29687 0.44141,-0.51562 0.70313,-0.66406 0.27343,-0.14063 0.60546,-0.21484 0.99609,-0.21484 0.49219,0 0.92969,0.13281 1.30859,0.39062 0.375,0.25 0.66407,0.60547 0.85938,1.07422 0.195311,0.46875 0.292968,0.97656 0.292968,1.52344 0,0.60156 -0.113281,1.14062 -0.332028,1.62109 -0.21094,0.48437 -0.51563,0.85547 -0.91797,1.11328 -0.40625,0.24219 -0.83594,0.37109 -1.28907,0.37109 -0.32812,0 -0.62109,-0.0742 -0.8789,-0.21484 -0.26172,-0.14062 -0.47656,-0.31641 -0.64453,-0.52734 v 2.83203 z m 0.89844,-5.11719 c 0,0.75781 0.14844,1.32031 0.44922,1.67969 0.3125,0.35156 0.68359,0.52734 1.11328,0.52734 0.42969,0 0.80078,-0.17969 1.11328,-0.54687 0.32422,-0.375 0.48828,-0.95703 0.48828,-1.73828 0,-0.74219 -0.15625,-1.29297 -0.46875,-1.66016 -0.30078,-0.375 -0.66406,-0.56641 -1.09375,-0.56641 -0.41797,0 -0.78906,0.20313 -1.11328,0.60547 -0.32812,0.39063 -0.48828,0.95703 -0.48828,1.69922 z m 0,0"
           style="fill:#000000;fill-opacity:1;fill-rule:nonzero;stroke:none;stroke-width:0.99999994"
           inkscape:connector-curvature="0" />
        <path
           id="path312-4"
           d="m 100.37713,-134.30064 v -0.85938 c -0.460939,0.66406 -1.07422,0.99609 -1.85547,0.99609 -0.34375,0 -0.660157,-0.0664 -0.957032,-0.19531 -0.304687,-0.14062 -0.527344,-0.3125 -0.683594,-0.50781 -0.148437,-0.19531 -0.246093,-0.43359 -0.292968,-0.72266 -0.03906,-0.19531 -0.05859,-0.50781 -0.05859,-0.9375 v -3.61328 h 0.976562 v 3.24219 c 0,0.52344 0.02344,0.87109 0.07813,1.03516 0.04687,0.26562 0.175781,0.46875 0.371093,0.625 0.203125,0.14843 0.457031,0.21484 0.761719,0.21484 0.296874,0 0.574218,-0.0664 0.839844,-0.21484 0.257811,-0.15625 0.437499,-0.35938 0.546876,-0.625 0.10156,-0.25782 0.15625,-0.64454 0.15625,-1.15235 v -3.125 h 0.99609 v 5.83985 z m 0,0"
           style="fill:#000000;fill-opacity:1;fill-rule:nonzero;stroke:none;stroke-width:0.99999994"
           inkscape:connector-curvature="0" />
        <path
           id="path314-8"
           d="m 104.96697,-135.17955 0.13672,0.85937 c -0.28516,0.0625 -0.53516,0.0977 -0.74219,0.0977 -0.36328,0 -0.64453,-0.0586 -0.83984,-0.17578 -0.19531,-0.11718 -0.33984,-0.26172 -0.42969,-0.44922 -0.0781,-0.17968 -0.11719,-0.5664 -0.11719,-1.15234 v -3.35937 h -0.72265 v -0.78125 h 0.72265 v -1.44532 l 0.9961,-0.58594 v 2.03125 h 0.99609 v 0.78125 h -0.99609 v 3.39844 c 0,0.28906 0.0117,0.46875 0.0391,0.54688 0.0391,0.0781 0.0977,0.14453 0.17578,0.19531 0.0781,0.0547 0.1875,0.0781 0.33203,0.0781 0.11719,0 0.26563,-0.0117 0.44922,-0.0391 z m 0,0"
           style="fill:#000000;fill-opacity:1;fill-rule:nonzero;stroke:none;stroke-width:0.99999994"
           inkscape:connector-curvature="0" />
        <path
           id="path238-1"
           d="m 284.857,-64.712596 v -1.9336 h -3.4961 v -0.89843 l 3.67188,-5.214854 h 0.82031 v 5.214854 h 1.09375 v 0.89843 h -1.09375 v 1.9336 z m 0,-2.83203 v -3.632824 l -2.51953,3.632824 z m 0,0"
           style="fill:#000000;fill-opacity:1;fill-rule:nonzero;stroke:none;stroke-width:0.99999994"
           inkscape:connector-curvature="0" />
        <path
           id="path240-1"
           d="m 287.95075,-66.841506 0.99609,-0.13672 c 0.11719,0.5625 0.30078,0.96485 0.56641,1.21094 0.27344,0.25 0.60937,0.37109 1.01562,0.37109 0.45313,0 0.83985,-0.15625 1.15235,-0.46875 0.32031,-0.32422 0.48828,-0.72656 0.48828,-1.21093 0,-0.45313 -0.15235,-0.82422 -0.44922,-1.11329 -0.28906,-0.29687 -0.66016,-0.44921 -1.11328,-0.44921 -0.19531,0 -0.42969,0.0391 -0.70313,0.11718 l 0.11719,-0.8789 c 0.0625,0.0156 0.11719,0.0195 0.15625,0.0195 0.41406,0 0.78906,-0.10938 1.13281,-0.33203 0.33594,-0.21875 0.50782,-0.5586 0.50782,-1.01563 0,-0.363284 -0.12891,-0.664064 -0.3711,-0.898444 -0.25,-0.23437 -0.5664,-0.35156 -0.95703,-0.35156 -0.38281,0 -0.69922,0.125 -0.95703,0.3711 -0.25,0.23437 -0.41016,0.59375 -0.48828,1.074214 l -0.9961,-0.17578 c 0.125,-0.664064 0.39844,-1.175784 0.82032,-1.542964 0.42968,-0.36329 0.96093,-0.54688 1.60156,-0.54688 0.4375,0 0.84375,0.0977 1.21094,0.29297 0.375,0.18359 0.66406,0.4375 0.85937,0.76172 0.19531,0.32812 0.29297,0.67187 0.29297,1.035154 0,0.35157 -0.0977,0.67188 -0.29297,0.95703 -0.1875,0.28907 -0.46094,0.51563 -0.82031,0.6836 0.47656,0.10547 0.84766,0.33203 1.11328,0.68359 0.25781,0.33985 0.39063,0.76953 0.39063,1.28906 0,0.70313 -0.26563,1.30469 -0.78125,1.79688 -0.50782,0.48437 -1.15235,0.72266 -1.9336,0.72266 -0.70312,0 -1.28906,-0.20704 -1.75781,-0.625 -0.46875,-0.41407 -0.73828,-0.96094 -0.80078,-1.64063 z m 0,0"
           style="fill:#000000;fill-opacity:1;fill-rule:nonzero;stroke:none;stroke-width:0.99999994"
           inkscape:connector-curvature="0" />
      </g>
      <g
         transform="matrix(1.5,0,0,1.5,-206.80771,-223.90922)"
         ns1:version="0.11.0"
         ns1:texconverter="pdflatex"
         ns1:pdfconverter="pdf2svg"
         ns1:text="$(n_h, n_w) * (k_h,k_w) = (n_h-k_h+1, n_w-k_w+1)$"
         ns1:preamble="/home/edwin/.config/inkscape/extensions/textext/default_packages.tex"
         ns1:scale="1.5"
         ns1:alignment="middle center"
         inkscapeversion="0.92.3"
         ns1:jacobian_sqrt="1.5"
         id="g5246">
        <g
           id="surface1">
          <g
             style="fill:#000000;fill-opacity:1"
             id="g5117">
            <path
               inkscape:connector-curvature="0"
               style="stroke:none;stroke-width:0"
               d="m 3.296875,2.390625 c 0,-0.03125 0,-0.046875 -0.171875,-0.21875 C 1.890625,0.921875 1.5625,-0.96875 1.5625,-2.5 c 0,-1.734375 0.375,-3.46875 1.609375,-4.703125 0.125,-0.125 0.125,-0.140625 0.125,-0.171875 0,-0.078125 -0.03125,-0.109375 -0.09375,-0.109375 -0.109375,0 -1,0.6875 -1.59375,1.953125 -0.5,1.09375 -0.625,2.203125 -0.625,3.03125 0,0.78125 0.109375,1.984375 0.65625,3.125 C 2.25,1.84375 3.09375,2.5 3.203125,2.5 c 0.0625,0 0.09375,-0.03125 0.09375,-0.109375 z m 0,0"
               transform="translate(148.712,134.765)"
               id="path5115" />
          </g>
          <g
             style="fill:#000000;fill-opacity:1"
             id="g5121">
            <path
               inkscape:connector-curvature="0"
               style="stroke:none;stroke-width:0"
               d="m 0.875,-0.59375 c -0.03125,0.15625 -0.09375,0.390625 -0.09375,0.4375 0,0.171875 0.140625,0.265625 0.296875,0.265625 0.125,0 0.296875,-0.078125 0.375,-0.28125 0,-0.015625 0.125,-0.484375 0.1875,-0.734375 l 0.21875,-0.890625 C 1.90625,-2.03125 1.96875,-2.25 2.03125,-2.46875 c 0.03125,-0.171875 0.109375,-0.46875 0.125,-0.5 0.140625,-0.3125 0.671875,-1.21875 1.625,-1.21875 0.453125,0 0.53125,0.375 0.53125,0.703125 0,0.609375 -0.484375,1.890625 -0.640625,2.3125 C 3.578125,-0.9375 3.5625,-0.8125 3.5625,-0.703125 c 0,0.46875 0.359375,0.8125 0.828125,0.8125 0.9375,0 1.296875,-1.453125 1.296875,-1.53125 0,-0.109375 -0.078125,-0.109375 -0.109375,-0.109375 -0.109375,0 -0.109375,0.03125 -0.15625,0.1875 -0.203125,0.671875 -0.53125,1.234375 -1.015625,1.234375 -0.171875,0 -0.234375,-0.09375 -0.234375,-0.328125 0,-0.25 0.078125,-0.484375 0.171875,-0.703125 0.1875,-0.53125 0.609375,-1.625 0.609375,-2.203125 0,-0.65625 -0.421875,-1.0625 -1.140625,-1.0625 -0.90625,0 -1.390625,0.640625 -1.5625,0.875 -0.046875,-0.5625 -0.453125,-0.875 -0.921875,-0.875 -0.453125,0 -0.640625,0.390625 -0.734375,0.5625 C 0.421875,-3.5 0.296875,-2.90625 0.296875,-2.875 c 0,0.109375 0.09375,0.109375 0.109375,0.109375 0.109375,0 0.109375,-0.015625 0.171875,-0.234375 0.171875,-0.703125 0.375,-1.1875 0.734375,-1.1875 0.1875,0 0.296875,0.125 0.296875,0.453125 0,0.21875 -0.03125,0.328125 -0.15625,0.84375 z m 0,0"
               transform="translate(152.587,134.765)"
               id="path5119" />
          </g>
          <g
             style="fill:#000000;fill-opacity:1"
             id="g5125">
            <path
               inkscape:connector-curvature="0"
               style="stroke:none;stroke-width:0"
               d="m 2.1875,-4.625 c 0,-0.015625 0.015625,-0.109375 0.015625,-0.109375 0,-0.046875 -0.015625,-0.109375 -0.109375,-0.109375 -0.140625,0 -0.71875,0.0625 -0.890625,0.078125 -0.046875,0 -0.15625,0.015625 -0.15625,0.15625 0,0.09375 0.109375,0.09375 0.1875,0.09375 0.328125,0 0.328125,0.0625 0.328125,0.109375 0,0.046875 -0.015625,0.09375 -0.015625,0.15625 L 0.5625,-0.3125 c -0.046875,0.125 -0.046875,0.140625 -0.046875,0.15625 0,0.109375 0.09375,0.21875 0.25,0.21875 0.078125,0 0.203125,-0.03125 0.28125,-0.171875 C 1.0625,-0.15625 1.125,-0.40625 1.15625,-0.546875 l 0.171875,-0.625 C 1.34375,-1.28125 1.421875,-1.546875 1.4375,-1.640625 1.5,-1.90625 1.5,-1.921875 1.640625,-2.140625 1.875,-2.484375 2.21875,-2.875 2.765625,-2.875 c 0.390625,0 0.40625,0.3125 0.40625,0.484375 0,0.421875 -0.296875,1.1875 -0.40625,1.484375 -0.078125,0.203125 -0.109375,0.265625 -0.109375,0.375 0,0.375 0.3125,0.59375 0.65625,0.59375 0.703125,0 1.015625,-0.953125 1.015625,-1.0625 0,-0.09375 -0.09375,-0.09375 -0.125,-0.09375 -0.09375,0 -0.09375,0.046875 -0.125,0.125 -0.15625,0.5625 -0.46875,0.84375 -0.734375,0.84375 -0.15625,0 -0.1875,-0.09375 -0.1875,-0.25 0,-0.15625 0.046875,-0.25 0.171875,-0.5625 C 3.40625,-1.15625 3.6875,-1.890625 3.6875,-2.28125 c 0,-0.109375 0,-0.40625 -0.25,-0.609375 -0.125,-0.078125 -0.328125,-0.1875 -0.65625,-0.1875 -0.5,0 -0.875,0.28125 -1.125,0.578125 z m 0,0"
               transform="translate(158.567,136.259)"
               id="path5123" />
          </g>
          <g
             style="fill:#000000;fill-opacity:1"
             id="g5129">
            <path
               inkscape:connector-curvature="0"
               style="stroke:none;stroke-width:0"
               d="m 2.03125,-0.015625 c 0,-0.65625 -0.25,-1.046875 -0.640625,-1.046875 -0.328125,0 -0.53125,0.25 -0.53125,0.53125 C 0.859375,-0.265625 1.0625,0 1.390625,0 1.5,0 1.640625,-0.046875 1.734375,-0.125 1.765625,-0.15625 1.78125,-0.15625 1.78125,-0.15625 c 0.015625,0 0.015625,0 0.015625,0.140625 0,0.75 -0.34375,1.34375 -0.671875,1.671875 -0.109375,0.109375 -0.109375,0.125 -0.109375,0.15625 0,0.078125 0.046875,0.109375 0.09375,0.109375 0.109375,0 0.921875,-0.765625 0.921875,-1.9375 z m 0,0"
               transform="translate(163.729,134.765)"
               id="path5127" />
          </g>
          <g
             style="fill:#000000;fill-opacity:1"
             id="g5133">
            <path
               inkscape:connector-curvature="0"
               style="stroke:none;stroke-width:0"
               d="m 0.875,-0.59375 c -0.03125,0.15625 -0.09375,0.390625 -0.09375,0.4375 0,0.171875 0.140625,0.265625 0.296875,0.265625 0.125,0 0.296875,-0.078125 0.375,-0.28125 0,-0.015625 0.125,-0.484375 0.1875,-0.734375 l 0.21875,-0.890625 C 1.90625,-2.03125 1.96875,-2.25 2.03125,-2.46875 c 0.03125,-0.171875 0.109375,-0.46875 0.125,-0.5 0.140625,-0.3125 0.671875,-1.21875 1.625,-1.21875 0.453125,0 0.53125,0.375 0.53125,0.703125 0,0.609375 -0.484375,1.890625 -0.640625,2.3125 C 3.578125,-0.9375 3.5625,-0.8125 3.5625,-0.703125 c 0,0.46875 0.359375,0.8125 0.828125,0.8125 0.9375,0 1.296875,-1.453125 1.296875,-1.53125 0,-0.109375 -0.078125,-0.109375 -0.109375,-0.109375 -0.109375,0 -0.109375,0.03125 -0.15625,0.1875 -0.203125,0.671875 -0.53125,1.234375 -1.015625,1.234375 -0.171875,0 -0.234375,-0.09375 -0.234375,-0.328125 0,-0.25 0.078125,-0.484375 0.171875,-0.703125 0.1875,-0.53125 0.609375,-1.625 0.609375,-2.203125 0,-0.65625 -0.421875,-1.0625 -1.140625,-1.0625 -0.90625,0 -1.390625,0.640625 -1.5625,0.875 -0.046875,-0.5625 -0.453125,-0.875 -0.921875,-0.875 -0.453125,0 -0.640625,0.390625 -0.734375,0.5625 C 0.421875,-3.5 0.296875,-2.90625 0.296875,-2.875 c 0,0.109375 0.09375,0.109375 0.109375,0.109375 0.109375,0 0.109375,-0.015625 0.171875,-0.234375 0.171875,-0.703125 0.375,-1.1875 0.734375,-1.1875 0.1875,0 0.296875,0.125 0.296875,0.453125 0,0.21875 -0.03125,0.328125 -0.15625,0.84375 z m 0,0"
               transform="translate(168.16036,134.765)"
               id="path5131" />
          </g>
          <g
             style="fill:#000000;fill-opacity:1"
             id="g5137">
            <path
               inkscape:connector-curvature="0"
               style="stroke:none;stroke-width:0"
               d="m 3.671875,-2.21875 c 0.046875,-0.1875 0.125,-0.53125 0.125,-0.5625 C 3.796875,-2.921875 3.6875,-3 3.5625,-3 3.4375,-3 3.3125,-2.921875 3.265625,-2.796875 3.25,-2.75 3.171875,-2.453125 3.125,-2.28125 3.03125,-1.875 3.03125,-1.875 2.921875,-1.484375 2.84375,-1.09375 2.828125,-1.03125 2.8125,-0.84375 2.84375,-0.703125 2.78125,-0.5625 2.625,-0.359375 2.53125,-0.25 2.390625,-0.125 2.15625,-0.125 1.875,-0.125 1.53125,-0.21875 1.53125,-0.765625 1.53125,-1.125 1.71875,-1.640625 1.859375,-2 1.984375,-2.296875 2,-2.359375 2,-2.484375 2,-2.8125 1.71875,-3.078125 1.34375,-3.078125 0.640625,-3.078125 0.328125,-2.125 0.328125,-2 c 0,0.078125 0.09375,0.078125 0.125,0.078125 0.09375,0 0.09375,-0.03125 0.125,-0.109375 C 0.75,-2.609375 1.046875,-2.875 1.328125,-2.875 1.4375,-2.875 1.5,-2.796875 1.5,-2.640625 c 0,0.171875 -0.0625,0.3125 -0.09375,0.40625 C 1,-1.21875 1,-1.078125 1,-0.859375 1,-0.03125 1.75,0.0625 2.125,0.0625 c 0.140625,0 0.46875,0 0.78125,-0.453125 C 3.078125,-0.078125 3.453125,0.0625 3.875,0.0625 4.5,0.0625 4.8125,-0.46875 4.953125,-0.75 5.25,-1.34375 5.4375,-2.203125 5.4375,-2.53125 c 0,-0.515625 -0.296875,-0.546875 -0.34375,-0.546875 -0.1875,0 -0.390625,0.1875 -0.390625,0.375 0,0.109375 0.078125,0.171875 0.125,0.203125 C 5,-2.359375 5.09375,-2.15625 5.09375,-1.9375 c 0,0.09375 -0.296875,1.8125 -1.1875,1.8125 -0.5625,0 -0.5625,-0.5 -0.5625,-0.625 0,-0.1875 0.03125,-0.296875 0.125,-0.6875 z m 0,0"
               transform="translate(174.137,136.259)"
               id="path5135" />
          </g>
          <g
             style="fill:#000000;fill-opacity:1"
             id="g5141">
            <path
               inkscape:connector-curvature="0"
               style="stroke:none;stroke-width:0"
               d="m 2.875,-2.5 c 0,-0.765625 -0.109375,-1.96875 -0.65625,-3.109375 -0.59375,-1.21875 -1.453125,-1.875 -1.546875,-1.875 -0.0625,0 -0.109375,0.046875 -0.109375,0.109375 0,0.03125 0,0.046875 0.1875,0.234375 0.984375,0.984375 1.546875,2.5625 1.546875,4.640625 0,1.71875 -0.359375,3.46875 -1.59375,4.71875 C 0.5625,2.34375 0.5625,2.359375 0.5625,2.390625 0.5625,2.453125 0.609375,2.5 0.671875,2.5 0.765625,2.5 1.671875,1.8125 2.25,0.546875 2.765625,-0.546875 2.875,-1.65625 2.875,-2.5 Z m 0,0"
               transform="translate(180.586,134.765)"
               id="path5139" />
          </g>
          <g
             style="fill:#000000;fill-opacity:1"
             id="g5145">
            <path
               inkscape:connector-curvature="0"
               style="stroke:none;stroke-width:0"
               d="M 2.734375,-4.25 C 2.75,-4.390625 2.75,-4.640625 2.5,-4.640625 2.328125,-4.640625 2.203125,-4.5 2.234375,-4.375 V -4.25 L 2.375,-2.703125 1.09375,-3.625 C 1,-3.671875 0.984375,-3.703125 0.921875,-3.703125 c -0.140625,0 -0.28125,0.140625 -0.28125,0.28125 0,0.15625 0.109375,0.203125 0.203125,0.25 L 2.265625,-2.5 l -1.375,0.671875 c -0.15625,0.078125 -0.25,0.125 -0.25,0.265625 0,0.15625 0.140625,0.28125 0.28125,0.28125 0.0625,0 0.078125,0 0.328125,-0.1875 L 2.375,-2.265625 2.21875,-0.59375 c 0,0.203125 0.1875,0.25 0.265625,0.25 0.125,0 0.265625,-0.0625 0.265625,-0.25 L 2.609375,-2.265625 3.875,-1.34375 c 0.09375,0.046875 0.109375,0.0625 0.1875,0.0625 0.140625,0 0.265625,-0.140625 0.265625,-0.28125 0,-0.140625 -0.09375,-0.1875 -0.21875,-0.25 C 3.515625,-2.109375 3.5,-2.109375 2.71875,-2.484375 l 1.375,-0.671875 C 4.25,-3.234375 4.328125,-3.265625 4.328125,-3.421875 c 0,-0.140625 -0.125,-0.28125 -0.265625,-0.28125 -0.078125,0 -0.09375,0 -0.34375,0.1875 l -1.109375,0.8125 z m 0,0"
               transform="translate(186.674,134.765)"
               id="path5143" />
          </g>
          <g
             style="fill:#000000;fill-opacity:1"
             id="g5149">
            <path
               inkscape:connector-curvature="0"
               style="stroke:none;stroke-width:0"
               d="m 3.296875,2.390625 c 0,-0.03125 0,-0.046875 -0.171875,-0.21875 C 1.890625,0.921875 1.5625,-0.96875 1.5625,-2.5 c 0,-1.734375 0.375,-3.46875 1.609375,-4.703125 0.125,-0.125 0.125,-0.140625 0.125,-0.171875 0,-0.078125 -0.03125,-0.109375 -0.09375,-0.109375 -0.109375,0 -1,0.6875 -1.59375,1.953125 -0.5,1.09375 -0.625,2.203125 -0.625,3.03125 0,0.78125 0.109375,1.984375 0.65625,3.125 C 2.25,1.84375 3.09375,2.5 3.203125,2.5 c 0.0625,0 0.09375,-0.03125 0.09375,-0.109375 z m 0,0"
               transform="translate(193.869,134.765)"
               id="path5147" />
          </g>
          <g
             style="fill:#000000;fill-opacity:1"
             id="g5153">
            <path
               inkscape:connector-curvature="0"
               style="stroke:none;stroke-width:0"
               d="m 2.859375,-6.8125 c 0,0 0,-0.109375 -0.125,-0.109375 -0.234375,0 -0.953125,0.078125 -1.21875,0.109375 -0.078125,0 -0.1875,0.015625 -0.1875,0.1875 0,0.125 0.09375,0.125 0.234375,0.125 0.484375,0 0.5,0.0625 0.5,0.171875 L 2.03125,-6.125 0.59375,-0.390625 c -0.046875,0.140625 -0.046875,0.15625 -0.046875,0.21875 0,0.234375 0.203125,0.28125 0.296875,0.28125 0.125,0 0.265625,-0.09375 0.328125,-0.203125 0.046875,-0.09375 0.5,-1.9375 0.5625,-2.1875 0.34375,0.03125 1.15625,0.1875 1.15625,0.84375 0,0.078125 0,0.109375 -0.03125,0.21875 -0.015625,0.109375 -0.03125,0.234375 -0.03125,0.34375 0,0.578125 0.390625,0.984375 0.90625,0.984375 0.296875,0 0.578125,-0.15625 0.796875,-0.53125 0.25,-0.4375 0.359375,-0.984375 0.359375,-1 0,-0.109375 -0.09375,-0.109375 -0.125,-0.109375 -0.09375,0 -0.109375,0.046875 -0.140625,0.1875 -0.203125,0.71875 -0.421875,1.234375 -0.859375,1.234375 -0.203125,0 -0.328125,-0.109375 -0.328125,-0.46875 0,-0.171875 0.046875,-0.40625 0.078125,-0.5625 C 3.5625,-1.3125 3.5625,-1.34375 3.5625,-1.453125 3.5625,-2.09375 2.9375,-2.375 2.078125,-2.5 2.390625,-2.671875 2.71875,-2.984375 2.9375,-3.234375 3.421875,-3.765625 3.875,-4.1875 4.359375,-4.1875 c 0.0625,0 0.078125,0 0.09375,0.015625 0.125,0.015625 0.125,0.015625 0.21875,0.078125 0.015625,0 0.015625,0.015625 0.03125,0.03125 -0.46875,0.03125 -0.5625,0.421875 -0.5625,0.546875 0,0.15625 0.109375,0.34375 0.375,0.34375 0.265625,0 0.546875,-0.21875 0.546875,-0.609375 0,-0.296875 -0.234375,-0.625 -0.671875,-0.625 -0.28125,0 -0.734375,0.078125 -1.453125,0.875 -0.34375,0.375 -0.734375,0.78125 -1.109375,0.921875 z m 0,0"
               transform="translate(197.744,134.765)"
               id="path5151" />
          </g>
          <g
             style="fill:#000000;fill-opacity:1"
             id="g5157">
            <path
               inkscape:connector-curvature="0"
               style="stroke:none;stroke-width:0"
               d="m 2.1875,-4.625 c 0,-0.015625 0.015625,-0.109375 0.015625,-0.109375 0,-0.046875 -0.015625,-0.109375 -0.109375,-0.109375 -0.140625,0 -0.71875,0.0625 -0.890625,0.078125 -0.046875,0 -0.15625,0.015625 -0.15625,0.15625 0,0.09375 0.109375,0.09375 0.1875,0.09375 0.328125,0 0.328125,0.0625 0.328125,0.109375 0,0.046875 -0.015625,0.09375 -0.015625,0.15625 L 0.5625,-0.3125 c -0.046875,0.125 -0.046875,0.140625 -0.046875,0.15625 0,0.109375 0.09375,0.21875 0.25,0.21875 0.078125,0 0.203125,-0.03125 0.28125,-0.171875 C 1.0625,-0.15625 1.125,-0.40625 1.15625,-0.546875 l 0.171875,-0.625 C 1.34375,-1.28125 1.421875,-1.546875 1.4375,-1.640625 1.5,-1.90625 1.5,-1.921875 1.640625,-2.140625 1.875,-2.484375 2.21875,-2.875 2.765625,-2.875 c 0.390625,0 0.40625,0.3125 0.40625,0.484375 0,0.421875 -0.296875,1.1875 -0.40625,1.484375 -0.078125,0.203125 -0.109375,0.265625 -0.109375,0.375 0,0.375 0.3125,0.59375 0.65625,0.59375 0.703125,0 1.015625,-0.953125 1.015625,-1.0625 0,-0.09375 -0.09375,-0.09375 -0.125,-0.09375 -0.09375,0 -0.09375,0.046875 -0.125,0.125 -0.15625,0.5625 -0.46875,0.84375 -0.734375,0.84375 -0.15625,0 -0.1875,-0.09375 -0.1875,-0.25 0,-0.15625 0.046875,-0.25 0.171875,-0.5625 C 3.40625,-1.15625 3.6875,-1.890625 3.6875,-2.28125 c 0,-0.109375 0,-0.40625 -0.25,-0.609375 -0.125,-0.078125 -0.328125,-0.1875 -0.65625,-0.1875 -0.5,0 -0.875,0.28125 -1.125,0.578125 z m 0,0"
               transform="translate(202.93,136.259)"
               id="path5155" />
          </g>
          <g
             style="fill:#000000;fill-opacity:1"
             id="g5161">
            <path
               inkscape:connector-curvature="0"
               style="stroke:none;stroke-width:0"
               d="m 2.03125,-0.015625 c 0,-0.65625 -0.25,-1.046875 -0.640625,-1.046875 -0.328125,0 -0.53125,0.25 -0.53125,0.53125 C 0.859375,-0.265625 1.0625,0 1.390625,0 1.5,0 1.640625,-0.046875 1.734375,-0.125 1.765625,-0.15625 1.78125,-0.15625 1.78125,-0.15625 c 0.015625,0 0.015625,0 0.015625,0.140625 0,0.75 -0.34375,1.34375 -0.671875,1.671875 -0.109375,0.109375 -0.109375,0.125 -0.109375,0.15625 0,0.078125 0.046875,0.109375 0.09375,0.109375 0.109375,0 0.921875,-0.765625 0.921875,-1.9375 z m 0,0"
               transform="translate(208.093,134.765)"
               id="path5159" />
          </g>
          <g
             style="fill:#000000;fill-opacity:1"
             id="g5165">
            <path
               inkscape:connector-curvature="0"
               style="stroke:none;stroke-width:0"
               d="m 2.859375,-6.8125 c 0,0 0,-0.109375 -0.125,-0.109375 -0.234375,0 -0.953125,0.078125 -1.21875,0.109375 -0.078125,0 -0.1875,0.015625 -0.1875,0.1875 0,0.125 0.09375,0.125 0.234375,0.125 0.484375,0 0.5,0.0625 0.5,0.171875 L 2.03125,-6.125 0.59375,-0.390625 c -0.046875,0.140625 -0.046875,0.15625 -0.046875,0.21875 0,0.234375 0.203125,0.28125 0.296875,0.28125 0.125,0 0.265625,-0.09375 0.328125,-0.203125 0.046875,-0.09375 0.5,-1.9375 0.5625,-2.1875 0.34375,0.03125 1.15625,0.1875 1.15625,0.84375 0,0.078125 0,0.109375 -0.03125,0.21875 -0.015625,0.109375 -0.03125,0.234375 -0.03125,0.34375 0,0.578125 0.390625,0.984375 0.90625,0.984375 0.296875,0 0.578125,-0.15625 0.796875,-0.53125 0.25,-0.4375 0.359375,-0.984375 0.359375,-1 0,-0.109375 -0.09375,-0.109375 -0.125,-0.109375 -0.09375,0 -0.109375,0.046875 -0.140625,0.1875 -0.203125,0.71875 -0.421875,1.234375 -0.859375,1.234375 -0.203125,0 -0.328125,-0.109375 -0.328125,-0.46875 0,-0.171875 0.046875,-0.40625 0.078125,-0.5625 C 3.5625,-1.3125 3.5625,-1.34375 3.5625,-1.453125 3.5625,-2.09375 2.9375,-2.375 2.078125,-2.5 2.390625,-2.671875 2.71875,-2.984375 2.9375,-3.234375 3.421875,-3.765625 3.875,-4.1875 4.359375,-4.1875 c 0.0625,0 0.078125,0 0.09375,0.015625 0.125,0.015625 0.125,0.015625 0.21875,0.078125 0.015625,0 0.015625,0.015625 0.03125,0.03125 -0.46875,0.03125 -0.5625,0.421875 -0.5625,0.546875 0,0.15625 0.109375,0.34375 0.375,0.34375 0.265625,0 0.546875,-0.21875 0.546875,-0.609375 0,-0.296875 -0.234375,-0.625 -0.671875,-0.625 -0.28125,0 -0.734375,0.078125 -1.453125,0.875 -0.34375,0.375 -0.734375,0.78125 -1.109375,0.921875 z m 0,0"
               transform="translate(212.52436,134.765)"
               id="path5163" />
          </g>
          <g
             style="fill:#000000;fill-opacity:1"
             id="g5169">
            <path
               inkscape:connector-curvature="0"
               style="stroke:none;stroke-width:0"
               d="m 3.671875,-2.21875 c 0.046875,-0.1875 0.125,-0.53125 0.125,-0.5625 C 3.796875,-2.921875 3.6875,-3 3.5625,-3 3.4375,-3 3.3125,-2.921875 3.265625,-2.796875 3.25,-2.75 3.171875,-2.453125 3.125,-2.28125 3.03125,-1.875 3.03125,-1.875 2.921875,-1.484375 2.84375,-1.09375 2.828125,-1.03125 2.8125,-0.84375 2.84375,-0.703125 2.78125,-0.5625 2.625,-0.359375 2.53125,-0.25 2.390625,-0.125 2.15625,-0.125 1.875,-0.125 1.53125,-0.21875 1.53125,-0.765625 1.53125,-1.125 1.71875,-1.640625 1.859375,-2 1.984375,-2.296875 2,-2.359375 2,-2.484375 2,-2.8125 1.71875,-3.078125 1.34375,-3.078125 0.640625,-3.078125 0.328125,-2.125 0.328125,-2 c 0,0.078125 0.09375,0.078125 0.125,0.078125 0.09375,0 0.09375,-0.03125 0.125,-0.109375 C 0.75,-2.609375 1.046875,-2.875 1.328125,-2.875 1.4375,-2.875 1.5,-2.796875 1.5,-2.640625 c 0,0.171875 -0.0625,0.3125 -0.09375,0.40625 C 1,-1.21875 1,-1.078125 1,-0.859375 1,-0.03125 1.75,0.0625 2.125,0.0625 c 0.140625,0 0.46875,0 0.78125,-0.453125 C 3.078125,-0.078125 3.453125,0.0625 3.875,0.0625 4.5,0.0625 4.8125,-0.46875 4.953125,-0.75 5.25,-1.34375 5.4375,-2.203125 5.4375,-2.53125 c 0,-0.515625 -0.296875,-0.546875 -0.34375,-0.546875 -0.1875,0 -0.390625,0.1875 -0.390625,0.375 0,0.109375 0.078125,0.171875 0.125,0.203125 C 5,-2.359375 5.09375,-2.15625 5.09375,-1.9375 c 0,0.09375 -0.296875,1.8125 -1.1875,1.8125 -0.5625,0 -0.5625,-0.5 -0.5625,-0.625 0,-0.1875 0.03125,-0.296875 0.125,-0.6875 z m 0,0"
               transform="translate(217.707,136.259)"
               id="path5167" />
          </g>
          <g
             style="fill:#000000;fill-opacity:1"
             id="g5173">
            <path
               inkscape:connector-curvature="0"
               style="stroke:none;stroke-width:0"
               d="m 2.875,-2.5 c 0,-0.765625 -0.109375,-1.96875 -0.65625,-3.109375 -0.59375,-1.21875 -1.453125,-1.875 -1.546875,-1.875 -0.0625,0 -0.109375,0.046875 -0.109375,0.109375 0,0.03125 0,0.046875 0.1875,0.234375 0.984375,0.984375 1.546875,2.5625 1.546875,4.640625 0,1.71875 -0.359375,3.46875 -1.59375,4.71875 C 0.5625,2.34375 0.5625,2.359375 0.5625,2.390625 0.5625,2.453125 0.609375,2.5 0.671875,2.5 0.765625,2.5 1.671875,1.8125 2.25,0.546875 2.765625,-0.546875 2.875,-1.65625 2.875,-2.5 Z m 0,0"
               transform="translate(224.156,134.765)"
               id="path5171" />
          </g>
          <g
             style="fill:#000000;fill-opacity:1"
             id="g5177">
            <path
               inkscape:connector-curvature="0"
               style="stroke:none;stroke-width:0"
               d="m 6.84375,-3.265625 c 0.15625,0 0.34375,0 0.34375,-0.1875 C 7.1875,-3.65625 7,-3.65625 6.859375,-3.65625 h -5.96875 c -0.140625,0 -0.328125,0 -0.328125,0.203125 0,0.1875 0.1875,0.1875 0.328125,0.1875 z m 0.015625,1.9375 c 0.140625,0 0.328125,0 0.328125,-0.203125 0,-0.1875 -0.1875,-0.1875 -0.34375,-0.1875 H 0.890625 c -0.140625,0 -0.328125,0 -0.328125,0.1875 0,0.203125 0.1875,0.203125 0.328125,0.203125 z m 0,0"
               transform="translate(230.80006,134.765)"
               id="path5175" />
          </g>
          <g
             style="fill:#000000;fill-opacity:1"
             id="g5181">
            <path
               inkscape:connector-curvature="0"
               style="stroke:none;stroke-width:0"
               d="m 3.296875,2.390625 c 0,-0.03125 0,-0.046875 -0.171875,-0.21875 C 1.890625,0.921875 1.5625,-0.96875 1.5625,-2.5 c 0,-1.734375 0.375,-3.46875 1.609375,-4.703125 0.125,-0.125 0.125,-0.140625 0.125,-0.171875 0,-0.078125 -0.03125,-0.109375 -0.09375,-0.109375 -0.109375,0 -1,0.6875 -1.59375,1.953125 -0.5,1.09375 -0.625,2.203125 -0.625,3.03125 0,0.78125 0.109375,1.984375 0.65625,3.125 C 2.25,1.84375 3.09375,2.5 3.203125,2.5 c 0.0625,0 0.09375,-0.03125 0.09375,-0.109375 z m 0,0"
               transform="translate(241.31857,134.765)"
               id="path5179" />
          </g>
          <g
             style="fill:#000000;fill-opacity:1"
             id="g5185">
            <path
               inkscape:connector-curvature="0"
               style="stroke:none;stroke-width:0"
               d="m 0.875,-0.59375 c -0.03125,0.15625 -0.09375,0.390625 -0.09375,0.4375 0,0.171875 0.140625,0.265625 0.296875,0.265625 0.125,0 0.296875,-0.078125 0.375,-0.28125 0,-0.015625 0.125,-0.484375 0.1875,-0.734375 l 0.21875,-0.890625 C 1.90625,-2.03125 1.96875,-2.25 2.03125,-2.46875 c 0.03125,-0.171875 0.109375,-0.46875 0.125,-0.5 0.140625,-0.3125 0.671875,-1.21875 1.625,-1.21875 0.453125,0 0.53125,0.375 0.53125,0.703125 0,0.609375 -0.484375,1.890625 -0.640625,2.3125 C 3.578125,-0.9375 3.5625,-0.8125 3.5625,-0.703125 c 0,0.46875 0.359375,0.8125 0.828125,0.8125 0.9375,0 1.296875,-1.453125 1.296875,-1.53125 0,-0.109375 -0.078125,-0.109375 -0.109375,-0.109375 -0.109375,0 -0.109375,0.03125 -0.15625,0.1875 -0.203125,0.671875 -0.53125,1.234375 -1.015625,1.234375 -0.171875,0 -0.234375,-0.09375 -0.234375,-0.328125 0,-0.25 0.078125,-0.484375 0.171875,-0.703125 0.1875,-0.53125 0.609375,-1.625 0.609375,-2.203125 0,-0.65625 -0.421875,-1.0625 -1.140625,-1.0625 -0.90625,0 -1.390625,0.640625 -1.5625,0.875 -0.046875,-0.5625 -0.453125,-0.875 -0.921875,-0.875 -0.453125,0 -0.640625,0.390625 -0.734375,0.5625 C 0.421875,-3.5 0.296875,-2.90625 0.296875,-2.875 c 0,0.109375 0.09375,0.109375 0.109375,0.109375 0.109375,0 0.109375,-0.015625 0.171875,-0.234375 0.171875,-0.703125 0.375,-1.1875 0.734375,-1.1875 0.1875,0 0.296875,0.125 0.296875,0.453125 0,0.21875 -0.03125,0.328125 -0.15625,0.84375 z m 0,0"
               transform="translate(245.189,134.765)"
               id="path5183" />
          </g>
          <g
             style="fill:#000000;fill-opacity:1"
             id="g5189">
            <path
               inkscape:connector-curvature="0"
               style="stroke:none;stroke-width:0"
               d="m 2.1875,-4.625 c 0,-0.015625 0.015625,-0.109375 0.015625,-0.109375 0,-0.046875 -0.015625,-0.109375 -0.109375,-0.109375 -0.140625,0 -0.71875,0.0625 -0.890625,0.078125 -0.046875,0 -0.15625,0.015625 -0.15625,0.15625 0,0.09375 0.109375,0.09375 0.1875,0.09375 0.328125,0 0.328125,0.0625 0.328125,0.109375 0,0.046875 -0.015625,0.09375 -0.015625,0.15625 L 0.5625,-0.3125 c -0.046875,0.125 -0.046875,0.140625 -0.046875,0.15625 0,0.109375 0.09375,0.21875 0.25,0.21875 0.078125,0 0.203125,-0.03125 0.28125,-0.171875 C 1.0625,-0.15625 1.125,-0.40625 1.15625,-0.546875 l 0.171875,-0.625 C 1.34375,-1.28125 1.421875,-1.546875 1.4375,-1.640625 1.5,-1.90625 1.5,-1.921875 1.640625,-2.140625 1.875,-2.484375 2.21875,-2.875 2.765625,-2.875 c 0.390625,0 0.40625,0.3125 0.40625,0.484375 0,0.421875 -0.296875,1.1875 -0.40625,1.484375 -0.078125,0.203125 -0.109375,0.265625 -0.109375,0.375 0,0.375 0.3125,0.59375 0.65625,0.59375 0.703125,0 1.015625,-0.953125 1.015625,-1.0625 0,-0.09375 -0.09375,-0.09375 -0.125,-0.09375 -0.09375,0 -0.09375,0.046875 -0.125,0.125 -0.15625,0.5625 -0.46875,0.84375 -0.734375,0.84375 -0.15625,0 -0.1875,-0.09375 -0.1875,-0.25 0,-0.15625 0.046875,-0.25 0.171875,-0.5625 C 3.40625,-1.15625 3.6875,-1.890625 3.6875,-2.28125 c 0,-0.109375 0,-0.40625 -0.25,-0.609375 -0.125,-0.078125 -0.328125,-0.1875 -0.65625,-0.1875 -0.5,0 -0.875,0.28125 -1.125,0.578125 z m 0,0"
               transform="translate(251.168,136.259)"
               id="path5187" />
          </g>
          <g
             style="fill:#000000;fill-opacity:1"
             id="g5193">
            <path
               inkscape:connector-curvature="0"
               style="stroke:none;stroke-width:0"
               d="m 6.5625,-2.296875 c 0.171875,0 0.359375,0 0.359375,-0.203125 0,-0.1875 -0.1875,-0.1875 -0.359375,-0.1875 H 1.171875 c -0.171875,0 -0.34375,0 -0.34375,0.1875 0,0.203125 0.171875,0.203125 0.34375,0.203125 z m 0,0"
               transform="translate(258.545,134.765)"
               id="path5191" />
          </g>
          <g
             style="fill:#000000;fill-opacity:1"
             id="g5197">
            <path
               inkscape:connector-curvature="0"
               style="stroke:none;stroke-width:0"
               d="m 2.859375,-6.8125 c 0,0 0,-0.109375 -0.125,-0.109375 -0.234375,0 -0.953125,0.078125 -1.21875,0.109375 -0.078125,0 -0.1875,0.015625 -0.1875,0.1875 0,0.125 0.09375,0.125 0.234375,0.125 0.484375,0 0.5,0.0625 0.5,0.171875 L 2.03125,-6.125 0.59375,-0.390625 c -0.046875,0.140625 -0.046875,0.15625 -0.046875,0.21875 0,0.234375 0.203125,0.28125 0.296875,0.28125 0.125,0 0.265625,-0.09375 0.328125,-0.203125 0.046875,-0.09375 0.5,-1.9375 0.5625,-2.1875 0.34375,0.03125 1.15625,0.1875 1.15625,0.84375 0,0.078125 0,0.109375 -0.03125,0.21875 -0.015625,0.109375 -0.03125,0.234375 -0.03125,0.34375 0,0.578125 0.390625,0.984375 0.90625,0.984375 0.296875,0 0.578125,-0.15625 0.796875,-0.53125 0.25,-0.4375 0.359375,-0.984375 0.359375,-1 0,-0.109375 -0.09375,-0.109375 -0.125,-0.109375 -0.09375,0 -0.109375,0.046875 -0.140625,0.1875 -0.203125,0.71875 -0.421875,1.234375 -0.859375,1.234375 -0.203125,0 -0.328125,-0.109375 -0.328125,-0.46875 0,-0.171875 0.046875,-0.40625 0.078125,-0.5625 C 3.5625,-1.3125 3.5625,-1.34375 3.5625,-1.453125 3.5625,-2.09375 2.9375,-2.375 2.078125,-2.5 2.390625,-2.671875 2.71875,-2.984375 2.9375,-3.234375 3.421875,-3.765625 3.875,-4.1875 4.359375,-4.1875 c 0.0625,0 0.078125,0 0.09375,0.015625 0.125,0.015625 0.125,0.015625 0.21875,0.078125 0.015625,0 0.015625,0.015625 0.03125,0.03125 -0.46875,0.03125 -0.5625,0.421875 -0.5625,0.546875 0,0.15625 0.109375,0.34375 0.375,0.34375 0.265625,0 0.546875,-0.21875 0.546875,-0.609375 0,-0.296875 -0.234375,-0.625 -0.671875,-0.625 -0.28125,0 -0.734375,0.078125 -1.453125,0.875 -0.34375,0.375 -0.734375,0.78125 -1.109375,0.921875 z m 0,0"
               transform="translate(268.507,134.765)"
               id="path5195" />
          </g>
          <g
             style="fill:#000000;fill-opacity:1"
             id="g5201">
            <path
               inkscape:connector-curvature="0"
               style="stroke:none;stroke-width:0"
               d="m 2.1875,-4.625 c 0,-0.015625 0.015625,-0.109375 0.015625,-0.109375 0,-0.046875 -0.015625,-0.109375 -0.109375,-0.109375 -0.140625,0 -0.71875,0.0625 -0.890625,0.078125 -0.046875,0 -0.15625,0.015625 -0.15625,0.15625 0,0.09375 0.109375,0.09375 0.1875,0.09375 0.328125,0 0.328125,0.0625 0.328125,0.109375 0,0.046875 -0.015625,0.09375 -0.015625,0.15625 L 0.5625,-0.3125 c -0.046875,0.125 -0.046875,0.140625 -0.046875,0.15625 0,0.109375 0.09375,0.21875 0.25,0.21875 0.078125,0 0.203125,-0.03125 0.28125,-0.171875 C 1.0625,-0.15625 1.125,-0.40625 1.15625,-0.546875 l 0.171875,-0.625 C 1.34375,-1.28125 1.421875,-1.546875 1.4375,-1.640625 1.5,-1.90625 1.5,-1.921875 1.640625,-2.140625 1.875,-2.484375 2.21875,-2.875 2.765625,-2.875 c 0.390625,0 0.40625,0.3125 0.40625,0.484375 0,0.421875 -0.296875,1.1875 -0.40625,1.484375 -0.078125,0.203125 -0.109375,0.265625 -0.109375,0.375 0,0.375 0.3125,0.59375 0.65625,0.59375 0.703125,0 1.015625,-0.953125 1.015625,-1.0625 0,-0.09375 -0.09375,-0.09375 -0.125,-0.09375 -0.09375,0 -0.09375,0.046875 -0.125,0.125 -0.15625,0.5625 -0.46875,0.84375 -0.734375,0.84375 -0.15625,0 -0.1875,-0.09375 -0.1875,-0.25 0,-0.15625 0.046875,-0.25 0.171875,-0.5625 C 3.40625,-1.15625 3.6875,-1.890625 3.6875,-2.28125 c 0,-0.109375 0,-0.40625 -0.25,-0.609375 -0.125,-0.078125 -0.328125,-0.1875 -0.65625,-0.1875 -0.5,0 -0.875,0.28125 -1.125,0.578125 z m 0,0"
               transform="translate(273.694,136.259)"
               id="path5199" />
          </g>
          <g
             style="fill:#000000;fill-opacity:1"
             id="g5205">
            <path
               inkscape:connector-curvature="0"
               style="stroke:none;stroke-width:0"
               d="m 4.078125,-2.296875 h 2.78125 C 7,-2.296875 7.1875,-2.296875 7.1875,-2.5 7.1875,-2.6875 7,-2.6875 6.859375,-2.6875 h -2.78125 v -2.796875 c 0,-0.140625 0,-0.328125 -0.203125,-0.328125 -0.203125,0 -0.203125,0.1875 -0.203125,0.328125 V -2.6875 h -2.78125 c -0.140625,0 -0.328125,0 -0.328125,0.1875 0,0.203125 0.1875,0.203125 0.328125,0.203125 h 2.78125 V 0.5 c 0,0.140625 0,0.328125 0.203125,0.328125 0.203125,0 0.203125,-0.1875 0.203125,-0.328125 z m 0,0"
               transform="translate(281.07,134.765)"
               id="path5203" />
          </g>
          <g
             style="fill:#000000;fill-opacity:1"
             id="g5209">
            <path
               inkscape:connector-curvature="0"
               style="stroke:none;stroke-width:0"
               d="m 2.9375,-6.375 c 0,-0.25 0,-0.265625 -0.234375,-0.265625 C 2.078125,-6 1.203125,-6 0.890625,-6 v 0.3125 c 0.203125,0 0.78125,0 1.296875,-0.265625 v 5.171875 c 0,0.359375 -0.03125,0.46875 -0.921875,0.46875 h -0.3125 V 0 c 0.34375,-0.03125 1.203125,-0.03125 1.609375,-0.03125 0.390625,0 1.265625,0 1.609375,0.03125 v -0.3125 h -0.3125 c -0.90625,0 -0.921875,-0.109375 -0.921875,-0.46875 z m 0,0"
               transform="translate(291.03061,134.765)"
               id="path5207" />
          </g>
          <g
             style="fill:#000000;fill-opacity:1"
             id="g5213">
            <path
               inkscape:connector-curvature="0"
               style="stroke:none;stroke-width:0"
               d="m 2.03125,-0.015625 c 0,-0.65625 -0.25,-1.046875 -0.640625,-1.046875 -0.328125,0 -0.53125,0.25 -0.53125,0.53125 C 0.859375,-0.265625 1.0625,0 1.390625,0 1.5,0 1.640625,-0.046875 1.734375,-0.125 1.765625,-0.15625 1.78125,-0.15625 1.78125,-0.15625 c 0.015625,0 0.015625,0 0.015625,0.140625 0,0.75 -0.34375,1.34375 -0.671875,1.671875 -0.109375,0.109375 -0.109375,0.125 -0.109375,0.15625 0,0.078125 0.046875,0.109375 0.09375,0.109375 0.109375,0 0.921875,-0.765625 0.921875,-1.9375 z m 0,0"
               transform="translate(296.014,134.765)"
               id="path5211" />
          </g>
          <g
             style="fill:#000000;fill-opacity:1"
             id="g5217">
            <path
               inkscape:connector-curvature="0"
               style="stroke:none;stroke-width:0"
               d="m 0.875,-0.59375 c -0.03125,0.15625 -0.09375,0.390625 -0.09375,0.4375 0,0.171875 0.140625,0.265625 0.296875,0.265625 0.125,0 0.296875,-0.078125 0.375,-0.28125 0,-0.015625 0.125,-0.484375 0.1875,-0.734375 l 0.21875,-0.890625 C 1.90625,-2.03125 1.96875,-2.25 2.03125,-2.46875 c 0.03125,-0.171875 0.109375,-0.46875 0.125,-0.5 0.140625,-0.3125 0.671875,-1.21875 1.625,-1.21875 0.453125,0 0.53125,0.375 0.53125,0.703125 0,0.609375 -0.484375,1.890625 -0.640625,2.3125 C 3.578125,-0.9375 3.5625,-0.8125 3.5625,-0.703125 c 0,0.46875 0.359375,0.8125 0.828125,0.8125 0.9375,0 1.296875,-1.453125 1.296875,-1.53125 0,-0.109375 -0.078125,-0.109375 -0.109375,-0.109375 -0.109375,0 -0.109375,0.03125 -0.15625,0.1875 -0.203125,0.671875 -0.53125,1.234375 -1.015625,1.234375 -0.171875,0 -0.234375,-0.09375 -0.234375,-0.328125 0,-0.25 0.078125,-0.484375 0.171875,-0.703125 0.1875,-0.53125 0.609375,-1.625 0.609375,-2.203125 0,-0.65625 -0.421875,-1.0625 -1.140625,-1.0625 -0.90625,0 -1.390625,0.640625 -1.5625,0.875 -0.046875,-0.5625 -0.453125,-0.875 -0.921875,-0.875 -0.453125,0 -0.640625,0.390625 -0.734375,0.5625 C 0.421875,-3.5 0.296875,-2.90625 0.296875,-2.875 c 0,0.109375 0.09375,0.109375 0.109375,0.109375 0.109375,0 0.109375,-0.015625 0.171875,-0.234375 0.171875,-0.703125 0.375,-1.1875 0.734375,-1.1875 0.1875,0 0.296875,0.125 0.296875,0.453125 0,0.21875 -0.03125,0.328125 -0.15625,0.84375 z m 0,0"
               transform="translate(300.44536,134.765)"
               id="path5215" />
          </g>
          <g
             style="fill:#000000;fill-opacity:1"
             id="g5221">
            <path
               inkscape:connector-curvature="0"
               style="stroke:none;stroke-width:0"
               d="m 3.671875,-2.21875 c 0.046875,-0.1875 0.125,-0.53125 0.125,-0.5625 C 3.796875,-2.921875 3.6875,-3 3.5625,-3 3.4375,-3 3.3125,-2.921875 3.265625,-2.796875 3.25,-2.75 3.171875,-2.453125 3.125,-2.28125 3.03125,-1.875 3.03125,-1.875 2.921875,-1.484375 2.84375,-1.09375 2.828125,-1.03125 2.8125,-0.84375 2.84375,-0.703125 2.78125,-0.5625 2.625,-0.359375 2.53125,-0.25 2.390625,-0.125 2.15625,-0.125 1.875,-0.125 1.53125,-0.21875 1.53125,-0.765625 1.53125,-1.125 1.71875,-1.640625 1.859375,-2 1.984375,-2.296875 2,-2.359375 2,-2.484375 2,-2.8125 1.71875,-3.078125 1.34375,-3.078125 0.640625,-3.078125 0.328125,-2.125 0.328125,-2 c 0,0.078125 0.09375,0.078125 0.125,0.078125 0.09375,0 0.09375,-0.03125 0.125,-0.109375 C 0.75,-2.609375 1.046875,-2.875 1.328125,-2.875 1.4375,-2.875 1.5,-2.796875 1.5,-2.640625 c 0,0.171875 -0.0625,0.3125 -0.09375,0.40625 C 1,-1.21875 1,-1.078125 1,-0.859375 1,-0.03125 1.75,0.0625 2.125,0.0625 c 0.140625,0 0.46875,0 0.78125,-0.453125 C 3.078125,-0.078125 3.453125,0.0625 3.875,0.0625 4.5,0.0625 4.8125,-0.46875 4.953125,-0.75 5.25,-1.34375 5.4375,-2.203125 5.4375,-2.53125 c 0,-0.515625 -0.296875,-0.546875 -0.34375,-0.546875 -0.1875,0 -0.390625,0.1875 -0.390625,0.375 0,0.109375 0.078125,0.171875 0.125,0.203125 C 5,-2.359375 5.09375,-2.15625 5.09375,-1.9375 c 0,0.09375 -0.296875,1.8125 -1.1875,1.8125 -0.5625,0 -0.5625,-0.5 -0.5625,-0.625 0,-0.1875 0.03125,-0.296875 0.125,-0.6875 z m 0,0"
               transform="translate(306.422,136.259)"
               id="path5219" />
          </g>
          <g
             style="fill:#000000;fill-opacity:1"
             id="g5225">
            <path
               inkscape:connector-curvature="0"
               style="stroke:none;stroke-width:0"
               d="m 6.5625,-2.296875 c 0.171875,0 0.359375,0 0.359375,-0.203125 0,-0.1875 -0.1875,-0.1875 -0.359375,-0.1875 H 1.171875 c -0.171875,0 -0.34375,0 -0.34375,0.1875 0,0.203125 0.171875,0.203125 0.34375,0.203125 z m 0,0"
               transform="translate(315.085,134.765)"
               id="path5223" />
          </g>
          <g
             style="fill:#000000;fill-opacity:1"
             id="g5229">
            <path
               inkscape:connector-curvature="0"
               style="stroke:none;stroke-width:0"
               d="m 2.859375,-6.8125 c 0,0 0,-0.109375 -0.125,-0.109375 -0.234375,0 -0.953125,0.078125 -1.21875,0.109375 -0.078125,0 -0.1875,0.015625 -0.1875,0.1875 0,0.125 0.09375,0.125 0.234375,0.125 0.484375,0 0.5,0.0625 0.5,0.171875 L 2.03125,-6.125 0.59375,-0.390625 c -0.046875,0.140625 -0.046875,0.15625 -0.046875,0.21875 0,0.234375 0.203125,0.28125 0.296875,0.28125 0.125,0 0.265625,-0.09375 0.328125,-0.203125 0.046875,-0.09375 0.5,-1.9375 0.5625,-2.1875 0.34375,0.03125 1.15625,0.1875 1.15625,0.84375 0,0.078125 0,0.109375 -0.03125,0.21875 -0.015625,0.109375 -0.03125,0.234375 -0.03125,0.34375 0,0.578125 0.390625,0.984375 0.90625,0.984375 0.296875,0 0.578125,-0.15625 0.796875,-0.53125 0.25,-0.4375 0.359375,-0.984375 0.359375,-1 0,-0.109375 -0.09375,-0.109375 -0.125,-0.109375 -0.09375,0 -0.109375,0.046875 -0.140625,0.1875 -0.203125,0.71875 -0.421875,1.234375 -0.859375,1.234375 -0.203125,0 -0.328125,-0.109375 -0.328125,-0.46875 0,-0.171875 0.046875,-0.40625 0.078125,-0.5625 C 3.5625,-1.3125 3.5625,-1.34375 3.5625,-1.453125 3.5625,-2.09375 2.9375,-2.375 2.078125,-2.5 2.390625,-2.671875 2.71875,-2.984375 2.9375,-3.234375 3.421875,-3.765625 3.875,-4.1875 4.359375,-4.1875 c 0.0625,0 0.078125,0 0.09375,0.015625 0.125,0.015625 0.125,0.015625 0.21875,0.078125 0.015625,0 0.015625,0.015625 0.03125,0.03125 -0.46875,0.03125 -0.5625,0.421875 -0.5625,0.546875 0,0.15625 0.109375,0.34375 0.375,0.34375 0.265625,0 0.546875,-0.21875 0.546875,-0.609375 0,-0.296875 -0.234375,-0.625 -0.671875,-0.625 -0.28125,0 -0.734375,0.078125 -1.453125,0.875 -0.34375,0.375 -0.734375,0.78125 -1.109375,0.921875 z m 0,0"
               transform="translate(325.048,134.765)"
               id="path5227" />
          </g>
          <g
             style="fill:#000000;fill-opacity:1"
             id="g5233">
            <path
               inkscape:connector-curvature="0"
               style="stroke:none;stroke-width:0"
               d="m 3.671875,-2.21875 c 0.046875,-0.1875 0.125,-0.53125 0.125,-0.5625 C 3.796875,-2.921875 3.6875,-3 3.5625,-3 3.4375,-3 3.3125,-2.921875 3.265625,-2.796875 3.25,-2.75 3.171875,-2.453125 3.125,-2.28125 3.03125,-1.875 3.03125,-1.875 2.921875,-1.484375 2.84375,-1.09375 2.828125,-1.03125 2.8125,-0.84375 2.84375,-0.703125 2.78125,-0.5625 2.625,-0.359375 2.53125,-0.25 2.390625,-0.125 2.15625,-0.125 1.875,-0.125 1.53125,-0.21875 1.53125,-0.765625 1.53125,-1.125 1.71875,-1.640625 1.859375,-2 1.984375,-2.296875 2,-2.359375 2,-2.484375 2,-2.8125 1.71875,-3.078125 1.34375,-3.078125 0.640625,-3.078125 0.328125,-2.125 0.328125,-2 c 0,0.078125 0.09375,0.078125 0.125,0.078125 0.09375,0 0.09375,-0.03125 0.125,-0.109375 C 0.75,-2.609375 1.046875,-2.875 1.328125,-2.875 1.4375,-2.875 1.5,-2.796875 1.5,-2.640625 c 0,0.171875 -0.0625,0.3125 -0.09375,0.40625 C 1,-1.21875 1,-1.078125 1,-0.859375 1,-0.03125 1.75,0.0625 2.125,0.0625 c 0.140625,0 0.46875,0 0.78125,-0.453125 C 3.078125,-0.078125 3.453125,0.0625 3.875,0.0625 4.5,0.0625 4.8125,-0.46875 4.953125,-0.75 5.25,-1.34375 5.4375,-2.203125 5.4375,-2.53125 c 0,-0.515625 -0.296875,-0.546875 -0.34375,-0.546875 -0.1875,0 -0.390625,0.1875 -0.390625,0.375 0,0.109375 0.078125,0.171875 0.125,0.203125 C 5,-2.359375 5.09375,-2.15625 5.09375,-1.9375 c 0,0.09375 -0.296875,1.8125 -1.1875,1.8125 -0.5625,0 -0.5625,-0.5 -0.5625,-0.625 0,-0.1875 0.03125,-0.296875 0.125,-0.6875 z m 0,0"
               transform="translate(330.234,136.259)"
               id="path5231" />
          </g>
          <g
             style="fill:#000000;fill-opacity:1"
             id="g5237">
            <path
               inkscape:connector-curvature="0"
               style="stroke:none;stroke-width:0"
               d="m 4.078125,-2.296875 h 2.78125 C 7,-2.296875 7.1875,-2.296875 7.1875,-2.5 7.1875,-2.6875 7,-2.6875 6.859375,-2.6875 h -2.78125 v -2.796875 c 0,-0.140625 0,-0.328125 -0.203125,-0.328125 -0.203125,0 -0.203125,0.1875 -0.203125,0.328125 V -2.6875 h -2.78125 c -0.140625,0 -0.328125,0 -0.328125,0.1875 0,0.203125 0.1875,0.203125 0.328125,0.203125 h 2.78125 V 0.5 c 0,0.140625 0,0.328125 0.203125,0.328125 0.203125,0 0.203125,-0.1875 0.203125,-0.328125 z m 0,0"
               transform="translate(338.897,134.765)"
               id="path5235" />
          </g>
          <g
             style="fill:#000000;fill-opacity:1"
             id="g5243">
            <path
               inkscape:connector-curvature="0"
               style="stroke:none;stroke-width:0"
               d="m 2.9375,-6.375 c 0,-0.25 0,-0.265625 -0.234375,-0.265625 C 2.078125,-6 1.203125,-6 0.890625,-6 v 0.3125 c 0.203125,0 0.78125,0 1.296875,-0.265625 v 5.171875 c 0,0.359375 -0.03125,0.46875 -0.921875,0.46875 h -0.3125 V 0 c 0.34375,-0.03125 1.203125,-0.03125 1.609375,-0.03125 0.390625,0 1.265625,0 1.609375,0.03125 v -0.3125 h -0.3125 c -0.90625,0 -0.921875,-0.109375 -0.921875,-0.46875 z m 0,0"
               transform="translate(348.85761,134.765)"
               id="path5239" />
            <path
               inkscape:connector-curvature="0"
               style="stroke:none;stroke-width:0"
               d="m 2.875,-2.5 c 0,-0.765625 -0.109375,-1.96875 -0.65625,-3.109375 -0.59375,-1.21875 -1.453125,-1.875 -1.546875,-1.875 -0.0625,0 -0.109375,0.046875 -0.109375,0.109375 0,0.03125 0,0.046875 0.1875,0.234375 0.984375,0.984375 1.546875,2.5625 1.546875,4.640625 0,1.71875 -0.359375,3.46875 -1.59375,4.71875 C 0.5625,2.34375 0.5625,2.359375 0.5625,2.390625 0.5625,2.453125 0.609375,2.5 0.671875,2.5 0.765625,2.5 1.671875,1.8125 2.25,0.546875 2.765625,-0.546875 2.875,-1.65625 2.875,-2.5 Z m 0,0"
               transform="translate(353.83891,134.765)"
               id="path5241" />
          </g>
        </g>
      </g>
    </g>
  </g>
</svg>
