<?xml version="1.0" encoding="UTF-8" standalone="no"?>
<!-- Generator: Adobe Illustrator 12.0.0, SVG Export Plug-In . SVG Version: 6.00 Build 51448)  -->

<svg
   xmlns:dc="http://purl.org/dc/elements/1.1/"
   xmlns:cc="http://creativecommons.org/ns#"
   xmlns:rdf="http://www.w3.org/1999/02/22-rdf-syntax-ns#"
   xmlns:svg="http://www.w3.org/2000/svg"
   xmlns="http://www.w3.org/2000/svg"
   xmlns:sodipodi="http://sodipodi.sourceforge.net/DTD/sodipodi-0.dtd"
   xmlns:inkscape="http://www.inkscape.org/namespaces/inkscape"
   version="1.1"
   id="Layer_1"
   width="885.2301"
   height="257.37454"
   viewBox="0 0 885.23007 257.37455"
   overflow="visible"
   enable-background="new 0 0 399.821 214.98"
   xml:space="preserve"
   sodipodi:version="0.32"
   inkscape:version="0.92.3 (2405546, 2018-03-11)"
   sodipodi:docname="neurona_perceptron.svg"
   inkscape:export-filename="/home/edwin/Documentos/qualify/figures/neuronio.png"
   inkscape:export-xdpi="96"
   inkscape:export-ydpi="96"
   style="overflow:visible"><metadata
   id="metadata78"><rdf:RDF><cc:Work
       rdf:about=""><dc:format>image/svg+xml</dc:format><dc:type
         rdf:resource="http://purl.org/dc/dcmitype/StillImage" /><dc:title></dc:title></cc:Work></rdf:RDF></metadata><defs
   id="defs76"><marker
     inkscape:isstock="true"
     style="overflow:visible"
     id="marker2010"
     refX="0"
     refY="0"
     orient="auto"
     inkscape:stockid="Arrow2Mend"><path
       transform="scale(-0.6)"
       d="M 8.7185878,4.0337352 -2.2072895,0.01601326 8.7185884,-4.0017078 c -1.7454984,2.3720609 -1.7354408,5.6174519 -6e-7,8.035443 z"
       style="fill:#000000;fill-opacity:1;fill-rule:evenodd;stroke:#000000;stroke-width:0.625;stroke-linejoin:round;stroke-opacity:1"
       id="path2008"
       inkscape:connector-curvature="0" /></marker><inkscape:path-effect
     only_selected="false"
     apply_with_weight="true"
     apply_no_weight="true"
     helper_size="0"
     steps="2"
     weight="33.333333"
     is_visible="true"
     id="path-effect2006"
     effect="bspline" /><marker
     inkscape:isstock="true"
     style="overflow:visible"
     id="Arrow2Mend"
     refX="0"
     refY="0"
     orient="auto"
     inkscape:stockid="Arrow2Mend"><path
       transform="scale(-0.6)"
       d="M 8.7185878,4.0337352 -2.2072895,0.01601326 8.7185884,-4.0017078 c -1.7454984,2.3720609 -1.7354408,5.6174519 -6e-7,8.035443 z"
       style="fill:#000000;fill-opacity:1;fill-rule:evenodd;stroke:#000000;stroke-width:0.625;stroke-linejoin:round;stroke-opacity:1"
       id="path1319"
       inkscape:connector-curvature="0" /></marker><marker
     inkscape:isstock="true"
     style="overflow:visible"
     id="marker1790"
     refX="0"
     refY="0"
     orient="auto"
     inkscape:stockid="Arrow2Lend"><path
       transform="matrix(-1.1,0,0,-1.1,-1.1,0)"
       d="M 8.7185878,4.0337352 -2.2072895,0.01601326 8.7185884,-4.0017078 c -1.7454984,2.3720609 -1.7354408,5.6174519 -6e-7,8.035443 z"
       style="fill:#000000;fill-opacity:1;fill-rule:evenodd;stroke:#000000;stroke-width:0.625;stroke-linejoin:round;stroke-opacity:1"
       id="path1788"
       inkscape:connector-curvature="0" /></marker><marker
     inkscape:isstock="true"
     style="overflow:visible"
     id="Arrow1Mend"
     refX="0"
     refY="0"
     orient="auto"
     inkscape:stockid="Arrow1Mend"><path
       transform="matrix(-0.4,0,0,-0.4,-4,0)"
       style="fill:#000000;fill-opacity:1;fill-rule:evenodd;stroke:#000000;stroke-width:1.00000003pt;stroke-opacity:1"
       d="M 0,0 5,-5 -12.5,0 5,5 Z"
       id="path1301"
       inkscape:connector-curvature="0" /></marker><marker
     inkscape:isstock="true"
     style="overflow:visible"
     id="Arrow2Lend"
     refX="0"
     refY="0"
     orient="auto"
     inkscape:stockid="Arrow2Lend"><path
       transform="matrix(-1.1,0,0,-1.1,-1.1,0)"
       d="M 8.7185878,4.0337352 -2.2072895,0.01601326 8.7185884,-4.0017078 c -1.7454984,2.3720609 -1.7354408,5.6174519 -6e-7,8.035443 z"
       style="fill:#000000;fill-opacity:1;fill-rule:evenodd;stroke:#000000;stroke-width:0.625;stroke-linejoin:round;stroke-opacity:1"
       id="path1313"
       inkscape:connector-curvature="0" /></marker><marker
     inkscape:isstock="true"
     style="overflow:visible"
     id="Arrow1Lend"
     refX="0"
     refY="0"
     orient="auto"
     inkscape:stockid="Arrow1Lend"><path
       transform="matrix(-0.8,0,0,-0.8,-10,0)"
       style="fill:#000000;fill-opacity:1;fill-rule:evenodd;stroke:#000000;stroke-width:1.00000003pt;stroke-opacity:1"
       d="M 0,0 5,-5 -12.5,0 5,5 Z"
       id="path1295"
       inkscape:connector-curvature="0" /></marker><inkscape:path-effect
     only_selected="false"
     apply_with_weight="true"
     apply_no_weight="true"
     helper_size="0"
     steps="2"
     weight="33.333333"
     is_visible="true"
     id="path-effect1290"
     effect="bspline" /><inkscape:path-effect
     only_selected="false"
     apply_with_weight="true"
     apply_no_weight="true"
     helper_size="0"
     steps="2"
     weight="33.333333"
     is_visible="true"
     id="path-effect1286"
     effect="bspline" /><inkscape:path-effect
     only_selected="false"
     apply_with_weight="true"
     apply_no_weight="true"
     helper_size="0"
     steps="2"
     weight="33.333333"
     is_visible="true"
     id="path-effect1282"
     effect="bspline" /><inkscape:path-effect
     only_selected="false"
     apply_with_weight="true"
     apply_no_weight="true"
     helper_size="0"
     steps="2"
     weight="33.333333"
     is_visible="true"
     id="path-effect1278"
     effect="bspline" /><inkscape:path-effect
     is_visible="true"
     id="path-effect1274"
     effect="spiro" /><inkscape:path-effect
     only_selected="false"
     apply_with_weight="true"
     apply_no_weight="true"
     helper_size="0"
     steps="2"
     weight="33.333333"
     is_visible="true"
     id="path-effect185"
     effect="bspline" /><inkscape:path-effect
     simplifyJustCoalesce="false"
     simplifyindividualpaths="false"
     simplify_just_coalesce="false"
     simplify_individual_paths="false"
     helper_size="0"
     smooth_angles="360"
     threshold="0.0001"
     steps="1"
     is_visible="true"
     id="path-effect183"
     effect="simplify" /><marker
     inkscape:isstock="true"
     style="overflow:visible"
     id="marker2010-5"
     refX="0"
     refY="0"
     orient="auto"
     inkscape:stockid="Arrow2Mend"><path
       transform="scale(-0.6)"
       d="M 8.7185878,4.0337352 -2.2072895,0.01601326 8.7185884,-4.0017078 c -1.7454984,2.3720609 -1.7354408,5.6174519 -6e-7,8.035443 z"
       style="fill:#000000;fill-opacity:1;fill-rule:evenodd;stroke:#000000;stroke-width:0.625;stroke-linejoin:round;stroke-opacity:1"
       id="path2008-6"
       inkscape:connector-curvature="0" /></marker><inkscape:path-effect
     only_selected="false"
     apply_with_weight="true"
     apply_no_weight="true"
     helper_size="0"
     steps="2"
     weight="33.333333"
     is_visible="true"
     id="path-effect2006-2"
     effect="bspline" /><marker
     inkscape:isstock="true"
     style="overflow:visible"
     id="marker2010-1"
     refX="0"
     refY="0"
     orient="auto"
     inkscape:stockid="Arrow2Mend"><path
       transform="scale(-0.6)"
       d="M 8.7185878,4.0337352 -2.2072895,0.01601326 8.7185884,-4.0017078 c -1.7454984,2.3720609 -1.7354408,5.6174519 -6e-7,8.035443 z"
       style="fill:#000000;fill-opacity:1;fill-rule:evenodd;stroke:#000000;stroke-width:0.625;stroke-linejoin:round;stroke-opacity:1"
       id="path2008-2"
       inkscape:connector-curvature="0" /></marker><inkscape:path-effect
     only_selected="false"
     apply_with_weight="true"
     apply_no_weight="true"
     helper_size="0"
     steps="2"
     weight="33.333333"
     is_visible="true"
     id="path-effect2006-7"
     effect="bspline" /><marker
     inkscape:isstock="true"
     style="overflow:visible"
     id="Arrow2Mend-8"
     refX="0"
     refY="0"
     orient="auto"
     inkscape:stockid="Arrow2Mend"><path
       transform="scale(-0.6)"
       d="M 8.7185878,4.0337352 -2.2072895,0.01601326 8.7185884,-4.0017078 c -1.7454984,2.3720609 -1.7354408,5.6174519 -6e-7,8.035443 z"
       style="fill:#000000;fill-opacity:1;fill-rule:evenodd;stroke:#000000;stroke-width:0.625;stroke-linejoin:round;stroke-opacity:1"
       id="path1319-9"
       inkscape:connector-curvature="0" /></marker><inkscape:path-effect
     only_selected="false"
     apply_with_weight="true"
     apply_no_weight="true"
     helper_size="0"
     steps="2"
     weight="33.333333"
     is_visible="true"
     id="path-effect1290-7"
     effect="bspline" /></defs><sodipodi:namedview
   inkscape:window-height="713"
   inkscape:window-width="1323"
   inkscape:pageshadow="2"
   inkscape:pageopacity="0.0"
   guidetolerance="10.0"
   gridtolerance="10.0"
   objecttolerance="10.0"
   borderopacity="1.0"
   bordercolor="#666666"
   pagecolor="#ffffff"
   id="base"
   inkscape:zoom="0.45818218"
   inkscape:cx="276.0565"
   inkscape:cy="165.8274"
   inkscape:window-x="43"
   inkscape:window-y="27"
   inkscape:current-layer="g4977"
   showgrid="false"
   inkscape:window-maximized="1"
   fit-margin-top="0"
   fit-margin-left="0"
   fit-margin-right="0"
   fit-margin-bottom="0" />
<path
   d="m 104.35564,179.35895 c 3.606,-1.491 1,-6.333 1,-6.333 0,0 -26.332998,-5 -20.999998,-24 5.333,-19 5.333,-19 5.333,-19 0,0 6.333,-4.668 11.666998,-8.334 5.334,-3.666 3.667,-4.999 -0.667,-3.666 -0.667,-1.334 2.333,-4.667 2.667,-5.333 0.333,-0.668 6,-13.001001 -5.332998,3.666 0,1 -9.667,12 -4,-7.666 0,0 7.332998,-35.334001 -1,-9.668001 0,0 -2,6.334001 -4,2.000001 0,0 4,13.335 -8.333,46.001 -3,-2.667 -5,-5.334 -5,-5.334 -1,-1.666 -1.667,-5.666 3,-14.333 4.667,-8.667 7.333,-14 7.333,-14 0,0 4.333,-8.334 -1,-2.334 0,0 0.333,-18.999001 -3,4.334 0,0 -2.666,4.001 -4.333,5.667 0,0 4.667,-11 -1,-8.333 0,0 -3,-7 -2.667,1 0.333,7.999 2,9.667 1,14.333 -1,4.666 -2.667,2.666 -3,-1.334 -0.333,-4 -10,0.334 5.333,24.667 0,0 5.333,25.333 -14.333,7.333 0,0 -24.667,-19.667 7,-43 -4,3 -5.667,6.335 -5,2.334 0.667,-4.001 0,-3.667 0,-3.667 0,0 -3.667,7.001 -6,8.667 -2.333,1.666 -11.667,4.667 9,-18.667 -4,3 -11.333,8.667 -4,-7.667001 -7,11.000001 -11.333,23.667001 -15.333,12.667001 0,0 4.333,46.332 -6,16.333 0,0 -3.667,-6 5,-35.667001 -3,6.667 -5.667,16.000001 -5,-3.333 0,0 -3,1 -2.333,22.333001 0,0 -9.333,21.334 -7.333,-7 0,0 3,-12.666001 3.333,-15.000001 0.333,-2.334 -1.667,0.667 -2.333,2 -0.666,1.333 -0.667,-5 -0.667,-5 0,0 -2,3 -2.333,7 -0.333,4 -3.333,-3 -4.333,-4.667 -1,-1.667 6.666,11 1.333,21.666001 0,0 -7.666,-12.666001 -8.333,-9.000001 -0.667,3.667001 16,23.668001 16.333,25.001001 0.333,1.333 10,11 -2,9.333 -4,-0.333 -6.333,-2.667 -8.333,-6 -2,-3.333 -6.333,-10 -6.333,-10 l -9.6669999,-11 -0.668,-15.333001 -1.333,3.667 -2.333,-2.333 2,4.667 0.333,6.333001 -2.333,1 c 0,0 27.9999999,28.334 5.3329999,17.667 0,0 -8.3339999,2.334 10.333,7 0,0 1.333,7.666 17.333,8.666 0,0 12,13.001 15,25.334 0,0 3.333,26.667 -12,6 0,0 3,7.333 1,7.333 -2,0 -11.667,-5.667 -13,-5.667 -1.333,0 -5.333,2 -5.333,2 0,0 27,6.666 1.667,7 0,0 -17.9999999,6.333 -11,-36 0,0 -2.333,12.334 -4.333,0.667 0,0 -5.3329999,26.334 0,36.667 0,0 5,6.332 -2.3329999,6.666 0,0 8.9999999,-1.334 17.9999999,-4 0,0 -6.667,13.334 -10,13.334 0,0 3,0.666 -0.333,2.666 0,0 1.333,2.666 5,-2 3.667,-4.666 9,-15.999 22,-15.666 4.333,1.333 20.333,14.666 -4,19.333 -7.333,3 -34.9999999,13.001 -32.6669999,14.667 2.333,1.666 16.3329999,-8.334 13.9999999,-3.334 -2.333,5 -10,19.334 -10,19.334 0,0 9.333,-21.333 7.333,-5 1,1.333 25.333,-45.333 8,0 0.333,1 4.333,-6.001 5,3.333 0,0 0.333,-35.332 25.333,-24.666 0.667,9 -4.667,21.332 -18.667,29.666 14.333,-8.333 16.667,-12 10,2 3.333,-3.333 5,-2.999 6,1.334 1.333,-15 4,-19.666 6.667,-22 2.667,7 3.667,9.999 4,11.666 0.333,1.667 -1.667,-23.667 -2,-25 -0.333,-1.333 13,-0.666 13,-0.666 0,0 10,19.334 5.667,28 2.333,-7.334 -1.667,-22.001 16,3.666 0,0 -12,-13.333 7.332998,-8.333 -6.666998,-5.333 -18.999998,-12.666 -22.332998,-18.333 -3.333,-5.667 -4,-13.333 6.333,-6 10.333,7.333 16.666998,10.332 17.666998,9.666 1,-0.666 -19.666998,-10 3.333,-6 -14.666998,-6.333 -38.999998,-11.667 -4.334,-26 z"
   id="path3"
   inkscape:connector-curvature="0"
   style="fill:#afa3cf;stroke:#000000" />
<path
   d="m 62.647642,183.85895 c -0.125,-4.5 1.375,-5.875 4.125,-5.5 2.75,0.375 5.5,1.625 6.625,2.875 1.125,1.25 2.75,3.5 3,4.375 0.25,0.875 0.375,1.75 0.5,2.625 0.125,0.875 0.5,1.75 0.125,2.5 -0.375,0.75 -0.875,2.375 -1.875,2.5 -1,0.125 -1.625,0.375 -2.75,-0.25 -1.125,-0.625 -2.875,-1.75 -3.625,-2.375 -0.75,-0.625 -3.75,-3.625 -4.375,-4.5 -0.625,-0.875 -1.75,-2.25 -1.75,-2.25 z"
   id="path5"
   inkscape:connector-curvature="0"
   style="fill:#5b9974;stroke:#000000" />
<path
   d="m 105.02264,180.60895 c 2.25,-4.5 1.625,-6 1.125,-7.375 -0.5,-1.375 17.625,-2 30,5 0,0 11.75,4 1.25,11.5 0,0 -19.5,2.875 -32.375,-9.125 z"
   id="path7"
   inkscape:connector-curvature="0"
   style="fill:#f9d566;stroke:#000000" />
<path
   d="m 145.89764,193.10895 c 0,0 -3.625,-1.75 -2.5,-5 1.125,-3.25 2.125,-3.25 3.125,-3.625 1,-0.375 6.75,-0.25 7.25,-0.25 0.5,0 19.75,2 22.375,4.25 2.625,2.25 3.5,5 3.5,6.125 0,1.125 -0.25,4.75 -3.75,4.75 -3.5,0 -18.375,-0.25 -19,-0.875 -0.625,-0.625 -8.5,-2.75 -11,-5.375 z"
   id="path9"
   inkscape:connector-curvature="0"
   style="fill:#f9d566;stroke:#000000" />
<path
   d="m 191.89764,202.35895 c -6.625,-2.125 -9.5,-4.625 -9.25,-7.25 0.25,-2.625 0.75,-3.625 1.875,-4.25 1.125,-0.625 3.875,-1.375 4.625,-1.625 0.75,-0.25 22.375,-3.375 24.5,-2.875 2.125,0.5 4.75,3 5,4.5 0.25,1.5 2.625,5 -2.75,7.25 -5.375,2.25 -9.375,3.75 -13,4 -3.625,0.25 -11,0.25 -11,0.25 z"
   id="path11"
   inkscape:connector-curvature="0"
   style="fill:#f9d566;stroke:#000000" />
<path
   d="m 229.64764,192.73395 c -6.009,0.376 -7.875,1.125 -7.75,-3.375 0.125,-4.5 -0.375,-6.125 3.25,-7.875 3.625,-1.75 13.875,-8.5 15.5,-9.25 1.625,-0.75 6.875,-2.375 9.25,0.75 2.375,3.125 2.125,4.5 -0.375,7.25 -2.5,2.75 -15.875,12.25 -19.875,12.5 z"
   id="path13"
   inkscape:connector-curvature="0"
   style="fill:#f9d566;stroke:#000000" />
<path
   d="m 251.52264,170.10895 c -2.44,-4.532 -3.375,-7 -1.125,-10.25 2.25,-3.25 13.125,-18.75 13.5,-19.25 0.375,-0.5 4.625,-2.375 8.375,0.875 3.75,3.25 4.5,5.5 1,10.25 -3.5,4.75 -11.625,17.5 -14.5,19 -2.875,1.5 -5.5,2.625 -7.25,-0.625 z"
   id="path15"
   inkscape:connector-curvature="0"
   style="fill:#f9d566;stroke:#000000" />
<ellipse
   cx="117.52264"
   cy="178.23395"
   rx="3.375"
   ry="2.125"
   id="ellipse17"
   style="fill:#e68b60;stroke:#b76328" />
<ellipse
   cx="159.39764"
   cy="192.10895"
   rx="3.375"
   ry="2.125"
   id="ellipse19"
   style="fill:#e68b60;stroke:#b76328" />
<ellipse
   cx="201.64764"
   cy="195.10895"
   rx="3.375"
   ry="2.125"
   id="ellipse21"
   style="fill:#e68b60;stroke:#b76328" />
<ellipse
   transform="rotate(-24.222521)"
   cx="140.7971"
   cy="262.34396"
   rx="3.3751521"
   ry="2.1250956"
   id="ellipse23"
   style="fill:#e68b60;stroke:#b76328;stroke-width:1.00004506" />
<ellipse
   transform="rotate(-57.164935)"
   cx="11.575221"
   cy="303.32233"
   rx="3.3748598"
   ry="2.1249118"
   id="ellipse25"
   style="fill:#e68b60;stroke:#b76328;stroke-width:0.99995846" />
<path
   d="m 141.77264,184.35895 c 2.25,0.5 3.75,0.5 3.75,0.5 l -2.125,3.25 -4.125,-0.125 z"
   id="path27"
   inkscape:connector-curvature="0"
   style="fill:#afa3cf;stroke:#000000" />
<path
   d="m 179.27264,192.48395 4.125,-0.25 -0.875,4.125 h -3.125 c 0,0 0.25,-3.375 -0.125,-3.875 z"
   id="path29"
   inkscape:connector-curvature="0"
   style="fill:#afa3cf;stroke:#000000" />
<path
   d="m 217.77264,188.85895 c 0,0 3.375,-2.5 3.625,-3.125 0.25,-0.625 0.375,5 0.5,5.375 0.125,0.375 -2.25,0.875 -2.25,0.875 z"
   id="path31"
   inkscape:connector-curvature="0"
   style="fill:#afa3cf;stroke:#000000" />
<path
   d="m 247.14764,170.98395 2.75,-3.875 2.875,4.375 -2,1.875 c 0,0 -1.75,-2.125 -3.625,-2.375 z"
   id="path33"
   inkscape:connector-curvature="0"
   style="fill:#afa3cf;stroke:#000000" />
<path
   d="m 268.68964,139.52595 c 0.041,-0.09 0.082,-0.18 0.123,-0.27 3.275,-7.251 5.894,-14.772 7.21,-18.064 1.333,-3.333 1.833,-11.166 1.333,-12 -0.5,-0.834 -2,-6.5 -5.833,-5.333 -3.833,1.167 -2.501,0 -3.667,1.833 -1.166,1.833 -3.999,2 -4.166,0.333 -0.167,-1.667 0.5,-2.167 3.333,-2.667 2.833,-0.5 1.333,-2.5 -0.667,-4.333001 -2,-1.833 -7.334,-1.833 -3.5,-4.333 3.834,-2.5 4,-2.834 5.5,-1.667 1.5,1.167 -3.167,2 1,4.5 4.167,2.500001 7.166,4.000001 8.5,4.167001 1.334,0.167 2.5,0.333 2.5,-1.167 0,-1.500001 1.667,-3.000001 2.667,-3.833001 1,-0.833 1.5,-4.167 1.5,-4.167 0,0 -3.5,-3.166 -0.5,-2.833 3,0.333 4.5,0.5 3,2.333 0.333,0.5 -0.166,2 0.167,2.5 0.333,0.5 5.333,-0.166 5.333,-0.166 0,0 4.5,-0.333 3,2.5 -0.333,0.833 -1.5,2 -3.5,0.667 -1.833,0.333 -3.667,-0.333 -4.167,-0.167 -0.5,0.166 -7.167,3.167001 -6.5,18.167001 4.5,-2.5 17.668,-10.334 19.334,-11 1.666,-0.666 9.666,-9.833001 9.833,-10.667001 0.167,-0.834 -1.666,-3.333 -1.333,-4 0.333,-0.667 3.499,-2 4.166,-2.167 0.667,-0.167 1.501,-2 2.334,0.167 0.833,2.167 0.667,2.167 0,2.667 -0.667,0.5 -1.166,0.833 -1,1.833 0.166,1 0.333,1.667 0.833,1.5 0.5,-0.167 0.833,0.833 0.833,0.833 l -6.666,5.333001 c 0,0 6.167,-1.167001 7,-2.000001 0.833,-0.833 2.5,-1.667 2.833,-0.5 0.333,1.167 0.667,0.834 0,1.667 -0.667,0.833001 -1.833,1.666001 -4,2.333001 -2.167,0.667 -3.667,1.333 -5,1.5 -1.333,0.167 -3.833,1 -3.833,1 0,0 -1.333,0.333 -4,2.5 -2.667,2.167 -4.5,3.167 -6.167,4.167 -1.667,1 -2.833,1.333 -4.5,2.5 -1.667,1.167 -4.5,2.5 -4.5,2.5 0,0 -2.501,0.834 -3.167,1.667 -0.666,0.833 -1.832,2.167 -2.166,2.667 -0.334,0.5 -1,2.166 -1,2.166 l -0.667,3 -2.167,2.5 -0.5,2.334 c 0,0 4.166,0.5 5,0.5 0.834,0 1.5,-0.001 2.667,-0.834 1.167,-0.833 1,-0.334 2,-1.5 1,-1.166 2.167,-2.333 2.667,-3.333 0.5,-1 1.666,-2.167 2.666,-3 1,-0.833 2.333,-2.001 3,-2.167 0.667,-0.166 3,-0.833 3.5,-1.333 0.5,-0.5 1.001,0.001 1.334,-0.833 0.333,-0.834 1.334,-2.5 1.5,-3.333 0.166,-0.833 0.166,-1.167 0.833,-1.167 0.667,0 1.167,-0.333 1.5,0.5 0.333,0.833 1.001,0.667 0.667,1.833 -0.334,1.166 -0.667,1.833 -0.667,1.833 l 0.167,0.334 c 0,0 1.5,0.499 2,-0.334 0.5,-0.833 1.333,-1.333 1.333,-1.333 l 1,-1.333 0.833,-1.5 0.834,-0.667 1.5,-0.333 c 0,0 0.5,0 0.833,1.167 0.333,1.167 0.5,1.667 0.5,2.167 0,0.5 -2,2 -2,2 l -0.667,0.667 c 0,0 -1.5,0.332 -2,0.666 -0.5,0.334 -2.166,0.834 -2.166,0.834 l -2.334,0.166 -1.666,0.834 -0.667,0.5 v 1 c 0,0 0.667,0.834 1.167,1 0.5,0.166 3.5,0 3.5,0 l 0.666,-0.167 -1,1.333 -3.333,0.667 c 0,0 -0.834,0.166 -1.667,0.333 -0.833,0.167 -3,0.5 -3,0.5 0,0 -1.834,0.834 -2.5,1.334 -0.666,0.5 -2,0.167 -0.833,1 1.167,0.833 0.333,1.334 4,1 3.667,-0.334 1.334,-0.667 4.667,0.333 3.333,1 4,0.667 6,1.667 2,1 -1.334,0.332 4.333,2.166 5.667,1.834 5.499,1.666 9.333,3 3.834,1.334 3.333,-0.5 4.5,2 1.167,2.5 6.667,2.833 1.167,2.5 -5.5,-0.333 -4.499,-0.333 -7.333,-1.333 -2.834,-1 -2.5,-1.167 -6.667,-2.667 -4.167,-1.5 -6.667,-3.667 -2.167,1.5 4.5,5.167 5.5,5.667 6.167,10.167 0.667,4.5 1,14.167 5,14.5 4,0.333 7.501,1.333 5.167,3.333 -2.334,2 -6.168,0.668 -7.334,-1.166 -1.166,-1.834 -3.666,-3.5 -4.166,-6 -0.5,-2.5 0.334,-4.501 -0.5,-4.834 -0.834,-0.333 -0.834,-0.332 -1.667,0.334 -0.833,0.666 -0.333,-0.834 -1.5,1.833 -1.167,2.667 -1.501,3.167 -2.167,3.5 -0.666,0.333 -4.166,0.834 -4.166,-0.833 0,-1.667 0.5,-2.168 1.333,-2.334 0.833,-0.166 -0.667,1.333 2,-1 2.667,-2.333 3.834,-4.166 4.167,-5.166 0.333,-1 2.166,-5.5 -5.667,-11.167 -7.833,-5.667 -13.666,-9.166 -20.833,-5.833 2,3 5.667,5.333 5.5,11.333 0,0.667 2.832,3 -0.334,4 -0.5,0.167 -3.5,0.333 -1.833,-4 0,-2.167 0.501,-3.499 -3.833,-7.333 0.166,3.666 -0.168,7.332 0.166,8.666 0.334,1.334 3.168,4.501 -0.666,5.834 -2.167,-0.5 -3.834,-1.833 -1.334,-6 0,-3.834 -3.999,-20.333 -14.166,-5 -2.334,-0.668 -3.5,-1.501 -3.5,-1.501 z"
   id="path35"
   inkscape:connector-curvature="0"
   style="fill:#afa3cf;stroke:#000000" />
<path
   d="M 344.85564,179.02595"
   id="path37"
   inkscape:connector-curvature="0"
   style="fill:#afa3cf;stroke:#000000" />
<line
   x1="120.02264"
   y1="125.35895"
   x2="89.022644"
   y2="165.85895"
   id="line39"
   style="stroke:#000000" />
<line
   x1="51.522644"
   y1="65.858948"
   x2="53.022644"
   y2="112.35895"
   id="line41"
   style="stroke:#000000" />
<line
   x1="67.022644"
   y1="189.35895"
   x2="21.022642"
   y2="247.35895"
   id="line43"
   style="fill:none;stroke:#000000" />
<line
   x1="105.02264"
   y1="180.60895"
   x2="120.52264"
   y2="209.35895"
   id="line45"
   style="fill:none;stroke:#000000" />




<text
   font-size="14"
   id="text55"
   style="font-size:14px;line-height:0%;font-family:Verdana"
   x="20.068277"
   y="63.178291">Dendrita</text>




<text
   font-size="14"
   id="text57"
   style="font-size:14px;line-height:0%;font-family:Verdana;text-align:center;writing-mode:lr-tb;text-anchor:middle"
   x="141.52376"
   y="100.9422"><tspan
     sodipodi:role="line"
     id="tspan1933"
     x="141.52376"
     y="100.9422"
     style="font-size:14px;line-height:1.25;text-align:center;text-anchor:middle">Cuerpo</tspan><tspan
     sodipodi:role="line"
     x="141.52376"
     y="118.4422"
     style="font-size:14px;line-height:1.25;text-align:center;text-anchor:middle"
     id="tspan8851">celular</tspan></text>
















<text
   font-size="14"
   id="text71"
   style="font-size:14px;line-height:0%;font-family:Verdana"
   x="117.52264"
   y="223.35886">Axón</text>




<text
   font-size="14"
   id="text73"
   style="font-size:14px;line-height:0%;font-family:Verdana"
   x="-0.10634232"
   y="257.1763">Núcleo</text>




<text
   id="text3864"
   y="206.7869"
   x="151.52162"
   style="font-style:normal;font-weight:normal;font-size:40px;line-height:1.25;font-family:sans-serif;letter-spacing:0px;word-spacing:0px;fill:#000000;fill-opacity:1;stroke:none;stroke-width:0.99999994"
   xml:space="preserve"><tspan
     style="stroke-width:0.99999994"
     y="242.17752"
     x="151.52162"
     id="tspan3862"
     sodipodi:role="line" /></text>
<g
   id="g4977"
   inkscape:export-xdpi="96"
   inkscape:export-ydpi="96"
   transform="matrix(3.7795276,0,0,3.7795276,-171.3787,-363.65168)"><text
     xml:space="preserve"
     style="font-style:normal;font-weight:normal;font-size:5.91535378px;line-height:1.25;font-family:sans-serif;letter-spacing:0px;word-spacing:0px;fill:#000000;fill-opacity:1;stroke:none;stroke-width:0.14788385"
     x="186.42535"
     y="115.90375"
     id="text3872"
     transform="scale(0.95345545,1.0488167)"><tspan
       sodipodi:role="line"
       id="tspan3870"
       x="186.42535"
       y="115.90375"
       style="stroke-width:0.14788385">w<tspan
   style="font-size:3.84497976px;baseline-shift:sub;stroke-width:0.14788385"
   id="tspan3874">1</tspan></tspan></text>
<text
     xml:space="preserve"
     style="font-style:normal;font-weight:normal;font-size:5.91535378px;line-height:1.25;font-family:sans-serif;letter-spacing:0px;word-spacing:0px;fill:#000000;fill-opacity:1;stroke:none;stroke-width:0.14788386"
     x="186.51894"
     y="129.21931"
     id="text3872-6"
     transform="scale(0.95345545,1.0488167)"><tspan
       sodipodi:role="line"
       id="tspan3870-0"
       x="186.51894"
       y="129.21931"
       style="stroke-width:0.14788386">w<tspan
   style="font-size:3.84498px;baseline-shift:sub;stroke-width:0.14788386"
   id="tspan3897">2</tspan></tspan></text>
<text
     xml:space="preserve"
     style="font-style:normal;font-weight:normal;font-size:5.91535378px;line-height:1.25;font-family:sans-serif;letter-spacing:0px;word-spacing:0px;fill:#000000;fill-opacity:1;stroke:none;stroke-width:0.14788386"
     x="186.96262"
     y="144.94949"
     id="text3872-6-2"
     transform="scale(0.95345545,1.0488167)"><tspan
       sodipodi:role="line"
       id="tspan3870-0-6"
       x="186.96262"
       y="144.94949"
       style="stroke-width:0.14788386">w<tspan
   style="font-size:3.84498px;baseline-shift:sub;stroke-width:0.14788386"
   id="tspan3920">n</tspan></tspan></text>
<text
     xml:space="preserve"
     style="font-style:normal;font-weight:normal;font-size:6.53304482px;line-height:1.25;font-family:sans-serif;letter-spacing:0px;word-spacing:0px;baseline-shift:baseline;fill:#000000;fill-opacity:1;stroke:none;stroke-width:0.08062586"
     x="150.60509"
     y="122.00181"
     id="text3872-8"
     transform="scale(1.0486269,0.95362803)"><tspan
       sodipodi:role="line"
       id="tspan3870-7"
       x="150.60509"
       y="122.00181"
       style="stroke-width:0.08062586">x<tspan
   style="font-size:4.24647903px;baseline-shift:sub;stroke-width:0.08062586"
   id="tspan3948">1</tspan></tspan></text>
<text
     xml:space="preserve"
     style="font-style:normal;font-weight:normal;font-size:6.53304482px;line-height:1.25;font-family:sans-serif;letter-spacing:0px;word-spacing:0px;baseline-shift:baseline;fill:#000000;fill-opacity:1;stroke:none;stroke-width:0.08062586"
     x="151.35483"
     y="170.79152"
     id="text3872-8-2"
     transform="scale(1.0486269,0.95362803)"><tspan
       sodipodi:role="line"
       id="tspan3870-7-0"
       x="151.35483"
       y="170.79152"
       style="stroke-width:0.08062586">x<tspan
   style="font-size:4.24647903px;baseline-shift:sub;stroke-width:0.08062586"
   id="tspan3994">n</tspan></tspan></text>
<text
     xml:space="preserve"
     style="font-style:normal;font-weight:normal;font-size:6.53304482px;line-height:1.25;font-family:sans-serif;letter-spacing:0px;word-spacing:0px;baseline-shift:baseline;fill:#000000;fill-opacity:1;stroke:none;stroke-width:0.08062586"
     x="151.13757"
     y="140.54066"
     id="text3872-8-2-3"
     transform="scale(1.0486269,0.95362803)"><tspan
       sodipodi:role="line"
       id="tspan3870-7-0-7"
       x="151.13757"
       y="140.54066"
       style="stroke-width:0.08062586">x<tspan
   style="font-size:4.24647903px;baseline-shift:sub;stroke-width:0.08062586"
   id="tspan3971-5">2</tspan></tspan></text>
<text
     xml:space="preserve"
     style="font-style:normal;font-weight:normal;font-size:5.91535378px;line-height:1.25;font-family:sans-serif;letter-spacing:0px;word-spacing:0px;fill:#000000;fill-opacity:1;stroke:none;stroke-width:0.14788386"
     x="233.32112"
     y="131.2155"
     id="text3872-6-9"
     transform="scale(0.95345545,1.0488167)"><tspan
       sodipodi:role="line"
       id="tspan3870-0-2"
       x="233.32112"
       y="131.2155"
       style="stroke-width:0.14788386">h</tspan></text>
<ellipse
     style="opacity:1;fill:#afa3cf;fill-opacity:1;stroke:#000000;stroke-width:0.83532137;stroke-linejoin:round;stroke-miterlimit:4;stroke-dasharray:none;stroke-opacity:1"
     id="path1264"
     cx="206.18526"
     cy="139.58269"
     rx="12.12489"
     ry="13.060227" /><path
     style="fill:none;stroke:#ffffff;stroke-width:2.31726193;stroke-linecap:butt;stroke-linejoin:miter;stroke-miterlimit:4;stroke-dasharray:none;stroke-opacity:1"
     d="m 212.75911,133.18138 c -11.10002,0 -11.10002,0 -11.10002,0 l 5.78125,6.33007 -5.55001,6.33011 h 10.86878 v 0"
     id="path1266"
     inkscape:connector-curvature="0" /><rect
     style="opacity:1;fill:#afa3cf;fill-opacity:1;stroke:#000000;stroke-width:0.58497655;stroke-linejoin:round;stroke-miterlimit:4;stroke-dasharray:none;stroke-opacity:1"
     id="rect1268"
     width="28.936386"
     height="25.548456"
     x="234.14738"
     y="127.09795" /><path
     style="fill:none;stroke:#ffffff;stroke-width:2.46948195;stroke-linecap:butt;stroke-linejoin:miter;stroke-miterlimit:4;stroke-dasharray:none;stroke-opacity:1"
     d="m 260.94495,131.36432 c -4.14604,0 -8.29245,0 -10.36584,2.73359 -2.07338,2.7336 -2.07338,8.20028 -4.11368,10.93412 -2.0403,2.73385 -6.12051,2.73385 -10.20151,2.73385"
     id="path1280"
     inkscape:connector-curvature="0"
     inkscape:path-effect="#path-effect1282"
     inkscape:original-d="m 260.94495,131.36432 c -4.14604,-4.6e-4 -8.29245,-4.6e-4 -12.43922,0 3.7e-4,5.46719 3.7e-4,10.93387 0,16.40156 -4.0806,-5.2e-4 -8.16081,-5.2e-4 -12.24181,0" /><path
     style="fill:none;stroke:#000000;stroke-width:0.80804819;stroke-linecap:butt;stroke-linejoin:miter;stroke-miterlimit:4;stroke-dasharray:none;stroke-opacity:1;marker-end:url(#Arrow2Mend)"
     d="m 218.45286,139.35365 c 4.79371,0 9.58713,0 14.38024,0"
     id="path1288"
     inkscape:connector-curvature="0"
     inkscape:path-effect="#path-effect1290"
     inkscape:original-d="m 218.45286,139.35365 c 4.79371,-3.4e-4 9.58713,-3.4e-4 14.38024,0" /><path
     style="fill:none;stroke:#000000;stroke-width:0.83532137;stroke-linecap:butt;stroke-linejoin:miter;stroke-miterlimit:4;stroke-dasharray:none;stroke-opacity:1;marker-end:url(#marker2010)"
     d="m 166.30198,115.87923 c 9.53657,5.09089 19.07304,10.18174 28.60942,15.27253"
     id="path2004"
     inkscape:connector-curvature="0"
     inkscape:path-effect="#path-effect2006"
     inkscape:original-d="m 166.30198,115.87923 c 9.53679,5.09048 19.07326,10.18132 28.60942,15.27253" /><path
     style="fill:none;stroke:#000000;stroke-width:0.7648887;stroke-linecap:butt;stroke-linejoin:miter;stroke-miterlimit:4;stroke-dasharray:none;stroke-opacity:1;marker-end:url(#marker2010-5)"
     d="m 166.69772,134.05914 c 8.59677,1.82746 17.19328,3.65486 25.78952,5.48221"
     id="path2004-9"
     inkscape:connector-curvature="0"
     inkscape:path-effect="#path-effect2006-2"
     inkscape:original-d="m 166.69772,134.05914 c 8.59686,1.82706 17.19337,3.65446 25.78952,5.48221"
     sodipodi:nodetypes="cc" /><path
     style="fill:none;stroke:#000000;stroke-width:0.82691866;stroke-linecap:butt;stroke-linejoin:miter;stroke-miterlimit:4;stroke-dasharray:none;stroke-opacity:1;marker-end:url(#marker2010-1)"
     d="m 166.94317,162.91366 c 9.38373,-4.81983 18.76706,-9.63946 28.15001,-14.45889"
     id="path2004-0"
     inkscape:connector-curvature="0"
     inkscape:path-effect="#path-effect2006-7"
     inkscape:original-d="m 166.94317,162.91366 c 9.38364,-4.82 18.76698,-9.63961 28.15001,-14.45889"
     sodipodi:nodetypes="cc" /><ellipse
     ry="1.5998954"
     rx="1.3871942"
     style="opacity:1;fill:#000000;fill-opacity:1;stroke:#000000;stroke-width:0;stroke-linejoin:round;stroke-miterlimit:4;stroke-dasharray:none;stroke-opacity:1"
     id="path3824"
     cx="166.39438"
     cy="143.34454" /><ellipse
     ry="1.5998956"
     rx="1.3871943"
     style="opacity:1;fill:#000000;fill-opacity:1;stroke:#000000;stroke-width:0;stroke-linejoin:round;stroke-miterlimit:4;stroke-dasharray:none;stroke-opacity:1"
     id="path3824-9"
     cx="166.50995"
     cy="147.4776" /><ellipse
     ry="1.5998957"
     rx="1.3871944"
     style="opacity:1;fill:#000000;fill-opacity:1;stroke:#000000;stroke-width:0;stroke-linejoin:round;stroke-miterlimit:4;stroke-dasharray:none;stroke-opacity:1"
     id="path3824-9-3"
     cx="166.50996"
     cy="151.34401" /><path
     style="fill:none;stroke:#000000;stroke-width:0.64389575;stroke-linecap:butt;stroke-linejoin:miter;stroke-miterlimit:4;stroke-dasharray:none;stroke-opacity:1;marker-end:url(#Arrow2Mend-8)"
     d="m 262.9266,139.83337 c 3.04389,0 6.08758,0 9.13108,0"
     id="path1288-3"
     inkscape:connector-curvature="0"
     inkscape:path-effect="#path-effect1290-7"
     inkscape:original-d="m 262.9266,139.83337 c 3.04389,-3.5e-4 6.08758,-3.5e-4 9.13108,0" /><text
     transform="scale(1.1313617,0.88389062)"
     id="text4790"
     y="159.99013"
     x="242.29002"
     style="font-style:normal;font-weight:normal;font-size:8.56101513px;line-height:1.25;font-family:sans-serif;letter-spacing:0px;word-spacing:0px;fill:#000000;fill-opacity:1;stroke:none;stroke-width:0.21402536"
     xml:space="preserve"><tspan
       style="stroke-width:0.21402536"
       y="159.99013"
       x="242.29002"
       id="tspan4788"
       sodipodi:role="line">y</tspan></text>
<text
     transform="scale(0.87156482,1.1473616)"
     id="text4794"
     y="138.49574"
     x="270.96478"
     style="font-style:normal;font-weight:normal;font-size:5.87306404px;line-height:1.25;font-family:sans-serif;letter-spacing:0px;word-spacing:0px;fill:#000000;fill-opacity:1;stroke:none;stroke-width:0.14682662"
     xml:space="preserve"><tspan
       style="stroke-width:0.14682662"
       y="138.49574"
       x="270.96478"
       id="tspan4792"
       sodipodi:role="line">Activación</tspan></text>
</g><text
   xml:space="preserve"
   style="font-style:normal;font-weight:normal;font-size:40px;line-height:1.25;font-family:sans-serif;letter-spacing:0px;word-spacing:0px;fill:#000000;fill-opacity:1;stroke:none"
   x="-3.9257812"
   y="31.992188"
   id="text1079"><tspan
     sodipodi:role="line"
     id="tspan1077"
     x="-3.9257812"
     y="31.992188">Neurona biológica</tspan></text>
<text
   xml:space="preserve"
   style="font-style:normal;font-weight:normal;font-size:40px;line-height:1.25;font-family:sans-serif;letter-spacing:0px;word-spacing:0px;fill:#000000;fill-opacity:1;stroke:none"
   x="546.90271"
   y="32.915436"
   id="text1079-6"><tspan
     sodipodi:role="line"
     id="tspan1077-7"
     x="546.90271"
     y="32.915436">Perceptron</tspan></text>
</svg>